<?xml version="1.0" ?><!DOCTYPE svg  PUBLIC '-//W3C//DTD SVG 1.1//EN'  'http://www.w3.org/Graphics/SVG/1.1/DTD/svg11.dtd'><svg id="Lager_1" style="enable-background:new -265 388.9 64 64;" version="1.1" viewBox="-265 388.9 64 64" xml:space="preserve" xmlns="http://www.w3.org/2000/svg" xmlns:xlink="http://www.w3.org/1999/xlink"><g><path d="M-244.5,411h-9.9c-0.9,0-1.6-0.7-1.6-1.6v-9.9c0-0.9,0.7-1.6,1.6-1.6h9.9c0.9,0,1.6,0.7,1.6,1.6v9.9   C-242.9,410.3-243.6,411-244.5,411z"/><path d="M-228.1,411h-9.9c-0.9,0-1.6-0.7-1.6-1.6v-9.9c0-0.9,0.7-1.6,1.6-1.6h9.9c0.9,0,1.6,0.7,1.6,1.6v9.9   C-226.4,410.3-227.2,411-228.1,411z"/><path d="M-211.6,411h-9.9c-0.9,0-1.6-0.7-1.6-1.6v-9.9c0-0.9,0.7-1.6,1.6-1.6h9.9c0.9,0,1.6,0.7,1.6,1.6v9.9   C-210,410.3-210.7,411-211.6,411z"/><path d="M-244.5,427.5h-9.9c-0.9,0-1.6-0.7-1.6-1.6V416c0-0.9,0.7-1.6,1.6-1.6h9.9c0.9,0,1.6,0.7,1.6,1.6v9.9   C-242.9,426.7-243.6,427.5-244.5,427.5z"/><path d="M-228.1,427.5h-9.9c-0.9,0-1.6-0.7-1.6-1.6V416c0-0.9,0.7-1.6,1.6-1.6h9.9c0.9,0,1.6,0.7,1.6,1.6v9.9   C-226.4,426.7-227.2,427.5-228.1,427.5z"/><path d="M-211.6,427.5h-9.9c-0.9,0-1.6-0.7-1.6-1.6V416c0-0.9,0.7-1.6,1.6-1.6h9.9c0.9,0,1.6,0.7,1.6,1.6v9.9   C-210,426.7-210.7,427.5-211.6,427.5z"/><path d="M-244.5,443.9h-9.9c-0.9,0-1.6-0.7-1.6-1.6v-9.9c0-0.9,0.7-1.6,1.6-1.6h9.9c0.9,0,1.6,0.7,1.6,1.6v9.9   C-242.9,443.2-243.6,443.9-244.5,443.9z"/><path d="M-228.1,443.9h-9.9c-0.9,0-1.6-0.7-1.6-1.6v-9.9c0-0.9,0.7-1.6,1.6-1.6h9.9c0.9,0,1.6,0.7,1.6,1.6v9.9   C-226.4,443.2-227.2,443.9-228.1,443.9z"/><path d="M-211.6,443.9h-9.9c-0.9,0-1.6-0.7-1.6-1.6v-9.9c0-0.9,0.7-1.6,1.6-1.6h9.9c0.9,0,1.6,0.7,1.6,1.6v9.9   C-210,443.2-210.7,443.9-211.6,443.9z"/></g></svg>