<svg width="245" height="140" viewBox="0 0 245 140" fill="none" xmlns="http://www.w3.org/2000/svg">
<path fill-rule="evenodd" clip-rule="evenodd" d="M203.27 120.535C200.774 121.93 196.157 123.6 192.346 119.867C188.416 116.036 185.607 116.115 184.291 116.488C183.898 116.409 183.465 116.586 183.249 116.96L174.978 131.99C174.329 133.168 173.072 133.915 171.716 133.915H144.78C144.25 133.915 143.817 134.347 143.817 134.878C143.817 135.408 144.25 135.84 144.78 135.84H171.716C173.779 135.84 175.665 134.721 176.667 132.913L181.501 124.111C183.308 124.347 185.764 125.152 188.063 127.412C192.503 131.734 197.71 129.298 199.615 128.139C200.087 127.864 200.46 127.451 200.735 126.98L203.977 121.262C204.272 120.791 203.741 120.26 203.27 120.535Z" fill="#5D21D1"/>
<path fill-rule="evenodd" clip-rule="evenodd" d="M69.5898 103.148C69.472 102.892 69.1576 102.794 68.9218 102.931C68.8433 102.971 68.0181 103.482 64.4226 105.269L62.7723 106.075C54.9331 109.847 43.3609 114.641 38.6652 112.657C38.4688 112.578 38.2526 112.617 38.1151 112.775C38.0955 112.794 36.4058 114.621 32.7121 116.35C29.3132 117.942 23.4583 119.749 14.9118 119.337C14.6171 119.317 14.3617 119.573 14.4206 119.887C14.4599 120.123 14.6564 120.28 14.8922 120.3C15.6584 120.339 16.3854 120.358 17.1123 120.358L17.4659 122.677C17.5445 123.188 18.2322 123.325 18.4876 122.873L19.9808 120.28C21.0221 120.221 22.0241 120.123 22.9868 120.005L23.5369 122.009C23.6744 122.5 24.3621 122.559 24.5782 122.107L25.757 119.573C26.5626 119.415 27.3092 119.239 28.0165 119.062L28.4684 120.732C28.6059 121.223 29.2935 121.282 29.5097 120.83L30.7278 118.237C31.6315 117.922 32.4174 117.588 33.1247 117.254L33.4391 118.413C33.5766 118.905 34.2643 118.963 34.4804 118.512L35.6985 115.879C37.2899 114.916 38.233 114.071 38.6456 113.659C39.6476 114.012 40.8657 114.111 42.241 114.032L43.0662 116.075C43.2627 116.547 43.911 116.527 44.0878 116.056L44.9916 113.678C45.8561 113.521 46.7402 113.325 47.644 113.069L48.0173 114.661C48.1352 115.172 48.8228 115.25 49.0389 114.779L50.316 112.264C51.1805 111.989 52.0449 111.674 52.9094 111.36L53.2434 112.794C53.3613 113.285 54.0097 113.384 54.2651 112.951L55.7975 110.26C56.5638 109.945 57.33 109.631 58.0963 109.297L58.4696 110.672C58.6071 111.164 59.2947 111.223 59.5109 110.771L60.729 108.138C61.5542 107.765 62.34 107.391 63.1063 107.018L63.401 108.138C63.5385 108.629 64.2262 108.688 64.4423 108.236L65.5622 105.839C68.6075 104.307 69.1773 103.953 69.472 103.796C69.5898 103.658 69.7077 103.383 69.5898 103.148Z" fill="#5D21D1"/>
<path fill-rule="evenodd" clip-rule="evenodd" d="M92.9904 96.2121C92.794 96.1336 92.5778 96.1729 92.4403 96.33C92.4207 96.3497 90.731 98.1769 87.0373 99.9058C83.6384 101.497 77.7835 103.305 69.237 102.892C68.9423 102.873 68.6869 103.128 68.7458 103.442C68.7851 103.678 68.9816 103.835 69.2174 103.855C69.9836 103.894 70.7106 103.914 71.4375 103.914L71.7715 106.193C71.8501 106.723 72.5574 106.861 72.8324 106.389L74.2863 103.835C75.3276 103.776 76.3296 103.678 77.2923 103.56L77.8228 105.525C77.9604 106.036 78.6676 106.095 78.8838 105.623L80.0429 103.128C80.8485 102.971 81.5951 102.794 82.3024 102.617L82.9311 104.503C83.1079 105.014 83.8152 105.034 84.0117 104.523L85.0137 101.792C85.9174 101.478 86.7033 101.144 87.4106 100.81L87.7053 101.929C87.8429 102.44 88.5502 102.499 88.7663 102.028L89.9648 99.4539C91.5562 98.4912 92.4992 97.6464 92.9118 97.2338" fill="#5D21D1"/>
<path fill-rule="evenodd" clip-rule="evenodd" d="M218.162 107.214C218.064 106.959 217.769 106.822 217.533 106.939C209.969 110.103 202.012 108.511 193.898 102.244C187.787 97.5284 183.897 91.7718 183.858 91.7325C183.701 91.5164 183.406 91.4574 183.19 91.595C182.974 91.7522 182.915 92.0469 183.052 92.263C183.072 92.3023 184.212 93.9919 186.235 96.2906L187.198 100.908C187.296 101.419 187.984 101.517 188.239 101.085L189.202 99.4538C190.027 100.259 190.911 101.065 191.854 101.851L192.876 105.407C193.014 105.878 193.642 105.957 193.898 105.544L194.801 104.13C195.607 104.7 196.413 105.21 197.238 105.702L198.652 109.69C198.81 110.142 199.438 110.201 199.674 109.788L200.931 107.588C201.717 107.922 202.484 108.197 203.269 108.433L205.116 111.655C205.372 112.087 206 112.008 206.158 111.537L206.845 109.238C207.847 109.376 208.849 109.454 209.851 109.454C209.93 109.454 210.008 109.454 210.087 109.454L212.071 112.048C212.346 112.421 212.936 112.303 213.073 111.851L213.879 109.042C215.215 108.767 216.531 108.374 217.848 107.824C218.103 107.725 218.26 107.45 218.162 107.214Z" fill="#5D21D1"/>
<path fill-rule="evenodd" clip-rule="evenodd" d="M14.814 119.199C15.1279 119.199 15.3845 119.445 15.4024 119.754L15.4034 119.789V139.2C15.4034 139.526 15.1395 139.789 14.814 139.789C14.5001 139.789 14.2435 139.544 14.2256 139.235L14.2246 139.2V119.789C14.2246 119.463 14.4885 119.199 14.814 119.199Z" fill="#FE7624"/>
<path fill-rule="evenodd" clip-rule="evenodd" d="M38.4498 112.519C38.7637 112.519 39.0203 112.765 39.0382 113.074L39.0392 113.109V138.886C39.0392 139.211 38.7753 139.475 38.4498 139.475C38.1359 139.475 37.8793 139.23 37.8614 138.92L37.8604 138.886V113.109C37.8604 112.783 38.1242 112.519 38.4498 112.519Z" fill="#FE7624"/>
<path fill-rule="evenodd" clip-rule="evenodd" d="M69.2173 102.735C69.5312 102.735 69.7878 102.98 69.8058 103.29L69.8068 103.324V138.846C69.8068 139.172 69.5429 139.436 69.2173 139.436C68.9034 139.436 68.6469 139.19 68.6289 138.881L68.6279 138.846V103.324C68.6279 102.999 68.8918 102.735 69.2173 102.735Z" fill="#FE7624"/>
<path fill-rule="evenodd" clip-rule="evenodd" d="M217.769 106.704C218.083 106.704 218.34 106.949 218.358 107.258L218.359 107.293V139.2C218.359 139.526 218.095 139.789 217.769 139.789C217.455 139.789 217.199 139.544 217.181 139.235L217.18 139.2V107.293C217.18 106.968 217.444 106.704 217.769 106.704Z" fill="#FE7624"/>
<path fill-rule="evenodd" clip-rule="evenodd" d="M181.619 89.2374L110.496 89.709C109.356 89.709 108.335 90.2984 107.863 91.2022L84.9154 132.952L26.6027 132.992C26.6027 132.992 25.6007 138.847 33.99 139.2L159.732 139.043L184.291 92.9704C185.234 91.2218 183.78 89.2178 181.619 89.2374Z" fill="#FE7624"/>
<path fill-rule="evenodd" clip-rule="evenodd" d="M92.2246 132.776L152.286 132.52L170.872 96.3105C171.599 94.9155 170.636 93.2259 169.143 93.2455L114.563 93.9135L92.2246 132.776Z" fill="white"/>
<path fill-rule="evenodd" clip-rule="evenodd" d="M175.739 89.2765C178.314 89.2535 180.068 91.6563 178.989 93.8119L178.956 93.8772L154.633 139.321C154.479 139.608 154.122 139.716 153.835 139.563C153.558 139.415 153.448 139.078 153.577 138.797L153.593 138.765L177.915 93.3238C178.619 91.9902 177.504 90.4396 175.75 90.4553C175.424 90.4582 175.158 90.1967 175.155 89.8712C175.152 89.5457 175.414 89.2794 175.739 89.2765Z" fill="white"/>
<path fill-rule="evenodd" clip-rule="evenodd" d="M95.4268 107.765L102.009 119.867C102.343 120.437 103.207 120.201 103.207 119.553L102.775 114.052C102.775 114.052 106.626 127.294 111.911 127.628C117.196 127.962 122.265 113.678 122.265 113.678L120.87 119.671C120.87 120.339 121.734 120.555 122.068 119.985L129.102 107.765" fill="#5D21D1"/>
<path fill-rule="evenodd" clip-rule="evenodd" d="M87.1944 60.9651C87.1944 60.9651 71.4963 82.2233 73.5199 101.242H108.158V60.5132L87.1944 60.9651Z" fill="#5D21D1"/>
<path fill-rule="evenodd" clip-rule="evenodd" d="M136.548 60.9651C136.548 60.9651 152.247 82.2233 150.223 101.242H115.585V60.5132L136.548 60.9651Z" fill="#5D21D1"/>
<path fill-rule="evenodd" clip-rule="evenodd" d="M125.998 101.242C139.299 77.3312 137.845 58.352 133.975 45.3456C130.085 32.3392 120.968 17.8396 112.304 17.8396C103.64 17.8396 94.5234 32.3392 90.6333 45.3456C86.7431 58.352 85.1124 77.3312 98.4135 101.242L94.7002 109.258H129.77L125.998 101.242V101.242Z" fill="white"/>
<path fill-rule="evenodd" clip-rule="evenodd" d="M112.303 17.2502C107.991 17.2502 103.443 20.5806 99.2021 26.3668C95.4051 31.5474 92.0833 38.4377 90.0677 45.1768C87.7686 52.8639 86.7916 60.7691 87.4884 69.2529L87.5146 69.5631C88.3863 79.5984 91.5957 90.0119 97.5308 100.863L97.752 101.265L94.1646 109.01C93.9836 109.401 94.2689 109.847 94.6994 109.847H129.77L129.803 109.846C130.216 109.824 130.482 109.388 130.303 109.007L126.659 101.263L126.883 100.856C132.884 89.886 136.131 79.3683 137.012 69.2558C137.754 60.7461 136.812 52.816 134.539 45.1776C132.523 38.4377 129.201 31.5474 125.404 26.3668C121.164 20.5806 116.616 17.2502 112.303 17.2502ZM112.303 18.4291C116.15 18.4291 120.412 21.5502 124.453 27.0637C128.168 32.1314 131.431 38.9002 133.409 45.5146C135.642 53.016 136.566 60.7988 135.838 69.1535C134.953 79.3045 131.64 89.8853 125.482 100.955L125.464 100.991C125.389 101.15 125.389 101.333 125.464 101.493L128.841 108.668H95.6217L98.9474 101.49C99.0266 101.319 99.0193 101.12 98.9277 100.955C92.776 89.8968 89.4981 79.3222 88.6632 69.1565C87.9791 60.827 88.938 53.0674 91.197 45.5146C93.1753 38.9002 96.4385 32.1314 100.153 27.0637C104.194 21.5502 108.456 18.4291 112.303 18.4291Z" fill="#2E186A"/>
<path fill-rule="evenodd" clip-rule="evenodd" d="M112.304 67.0361C117.772 67.0361 122.206 61.7583 122.206 55.2478C122.206 48.7373 117.772 43.4595 112.304 43.4595C106.835 43.4595 102.401 48.7373 102.401 55.2478C102.401 61.7583 106.835 67.0361 112.304 67.0361Z" fill="#5D21D1"/>
<path fill-rule="evenodd" clip-rule="evenodd" d="M112.304 72.3408C113.215 72.3408 113.954 71.4612 113.954 70.3761C113.954 69.291 113.215 68.4114 112.304 68.4114C111.392 68.4114 110.653 69.291 110.653 70.3761C110.653 71.4612 111.392 72.3408 112.304 72.3408Z" fill="#5D21D1"/>
<path fill-rule="evenodd" clip-rule="evenodd" d="M118.669 72.3408C119.58 72.3408 120.319 71.4612 120.319 70.3761C120.319 69.291 119.58 68.4114 118.669 68.4114C117.757 68.4114 117.019 69.291 117.019 70.3761C117.019 71.4612 117.757 72.3408 118.669 72.3408Z" fill="#5D21D1"/>
<path fill-rule="evenodd" clip-rule="evenodd" d="M105.446 72.3408C106.358 72.3408 107.097 71.4612 107.097 70.3761C107.097 69.291 106.358 68.4114 105.446 68.4114C104.535 68.4114 103.796 69.291 103.796 70.3761C103.796 71.4612 104.535 72.3408 105.446 72.3408Z" fill="#5D21D1"/>
<path fill-rule="evenodd" clip-rule="evenodd" d="M112.304 62.9888C116.438 62.9888 119.789 59.0041 119.789 54.0886C119.789 49.1732 116.438 45.1885 112.304 45.1885C108.17 45.1885 104.818 49.1732 104.818 54.0886C104.818 59.0041 108.17 62.9888 112.304 62.9888Z" fill="white"/>
<path fill-rule="evenodd" clip-rule="evenodd" d="M112.303 44.5991C107.819 44.5991 104.229 48.8682 104.229 54.0887C104.229 59.3092 107.819 63.5783 112.303 63.5783C116.788 63.5783 120.378 59.3092 120.378 54.0887C120.378 48.8682 116.788 44.5991 112.303 44.5991ZM112.304 45.778C116.087 45.778 119.2 49.4784 119.2 54.0887C119.2 58.699 116.087 62.3994 112.304 62.3994C108.52 62.3994 105.407 58.699 105.407 54.0887C105.407 49.4784 108.52 45.778 112.304 45.778Z" fill="#2E186A"/>
<path fill-rule="evenodd" clip-rule="evenodd" d="M114.052 17.5056V3.57578C114.052 3.53649 114.052 3.49719 114.052 3.43825C114.307 3.0846 114.464 2.63272 114.464 2.16119C114.464 0.962711 113.502 0 112.303 0C111.105 0 110.142 0.962711 110.142 2.16119C110.142 2.63272 110.299 3.0846 110.555 3.43825C110.555 3.47755 110.555 3.51684 110.555 3.57578V17.486C106.92 18.2326 103.285 21.2779 99.9648 25.3645C103.717 24.5 108.099 24.0285 113.128 24.3035C117.628 24.5589 121.636 25.1876 125.152 26.0325C121.714 21.6315 117.863 18.3308 114.052 17.5056Z" fill="#5D21D1"/>
<path fill-rule="evenodd" clip-rule="evenodd" d="M128.434 33.2627C124.092 31.8088 119.102 30.5317 112.402 30.2763C105.565 30.0209 100.378 31.5534 96.1147 33.2234C94.2482 36.6813 92.7746 40.0999 91.5762 43.7739C96.6844 41.2787 102.952 38.646 112.559 38.8228C121.695 38.98 127.982 41.0036 132.757 43.1255C131.597 39.6873 130.183 36.5241 128.434 33.2627Z" fill="#5D21D1"/>
<path fill-rule="evenodd" clip-rule="evenodd" d="M125.486 101.144C126.115 100.004 126.724 98.8842 127.294 97.7643C124.288 96.5462 119.966 95.5245 112.283 95.6031C104.523 95.5442 100.181 96.5855 97.1748 97.8233C97.7446 98.9235 98.334 100.043 98.943 101.163C98.943 101.163 105.761 99.8273 112.264 99.8862C118.669 99.8273 125.486 101.144 125.486 101.144Z" fill="#5D21D1"/>
<path fill-rule="evenodd" clip-rule="evenodd" d="M161.715 132.52H130.83C130.83 132.52 126.39 128.532 128.433 125.27C130.476 122.009 135.84 121.223 137.589 124.523C137.589 124.523 138.355 118.217 144.819 118.708C151.302 119.199 150.792 125.938 150.792 125.938C150.792 125.938 158.984 120.142 158.768 129.2C158.749 129.18 159.259 132.52 161.715 132.52Z" fill="white"/>
<path fill-rule="evenodd" clip-rule="evenodd" d="M130.83 133.109H161.715L161.755 133.108C162.488 133.07 162.488 131.97 161.755 131.932L161.715 131.931C160.895 131.931 160.285 131.445 159.837 130.581C159.668 130.257 159.538 129.904 159.444 129.557C159.417 129.454 159.394 129.359 159.377 129.275L159.362 129.194L159.358 129.174L159.358 129.214C159.462 124.85 157.637 123.099 154.683 123.604C153.851 123.747 152.98 124.061 152.1 124.496L151.943 124.575C151.787 124.655 151.635 124.736 151.487 124.818L151.363 124.888L151.362 124.879C151.351 124.743 151.337 124.6 151.319 124.454C151.219 123.64 151.021 122.836 150.698 122.078C149.742 119.837 147.88 118.38 144.968 118.129L144.864 118.12C141.716 117.881 139.519 119.113 138.17 121.292L138.091 121.421C137.782 121.942 137.539 122.486 137.353 123.035L137.309 123.17L137.256 123.118C134.813 120.799 129.99 121.676 127.934 124.957C127.581 125.52 127.381 126.125 127.323 126.76C127.192 128.222 127.803 129.729 128.887 131.208C129.224 131.668 129.584 132.092 129.944 132.471L130.034 132.565C130.209 132.746 130.348 132.879 130.436 132.958C130.544 133.056 130.685 133.109 130.83 133.109ZM144.774 119.296C147.29 119.486 148.813 120.663 149.613 122.54C149.889 123.188 150.062 123.886 150.149 124.597C150.204 125.047 150.218 125.445 150.209 125.759L150.206 125.845L150.204 125.894C150.167 126.38 150.7 126.693 151.104 126.438L151.209 126.366L151.346 126.276C151.406 126.238 151.47 126.197 151.54 126.154C151.871 125.949 152.235 125.744 152.622 125.553C153.408 125.165 154.177 124.887 154.881 124.766C155.869 124.597 156.639 124.751 157.176 125.266L157.213 125.302C157.844 125.94 158.199 127.131 158.182 128.97L158.179 129.151L158.179 129.171L158.179 129.24L158.183 129.284L158.187 129.315C158.191 129.342 158.196 129.374 158.203 129.41L158.209 129.446C158.232 129.568 158.265 129.711 158.306 129.863C158.42 130.287 158.579 130.718 158.79 131.124L158.826 131.191C158.951 131.425 159.089 131.641 159.24 131.838L159.313 131.93H131.065L131.015 131.881C130.947 131.814 130.875 131.74 130.799 131.66C130.471 131.314 130.143 130.928 129.838 130.511C128.908 129.241 128.397 127.983 128.497 126.866C128.538 126.414 128.679 125.987 128.932 125.583C130.811 122.584 135.515 122.06 137.023 124.718L137.068 124.799C137.332 125.299 138.073 125.173 138.169 124.629L138.18 124.549C138.186 124.51 138.196 124.455 138.209 124.384C138.244 124.201 138.293 123.996 138.357 123.773C138.54 123.138 138.807 122.502 139.172 121.912C140.298 120.093 142.085 119.091 144.774 119.296Z" fill="#2E186A"/>
<path fill-rule="evenodd" clip-rule="evenodd" d="M63.3809 132.579H94.2662C94.2662 132.579 98.7064 128.591 96.6631 125.329C94.6198 122.068 89.2562 121.282 87.5076 124.583C87.5076 124.583 86.7413 118.276 80.2774 118.767C73.7939 119.258 74.3047 125.997 74.3047 125.997C74.3047 125.997 66.1118 120.201 66.3279 129.259C66.3476 129.239 65.8368 132.559 63.3809 132.579Z" fill="white"/>
<path fill-rule="evenodd" clip-rule="evenodd" d="M63.3814 133.168H94.2667C94.4121 133.168 94.5524 133.114 94.6606 133.017L94.7088 132.973C94.8134 132.876 94.9662 132.727 95.1528 132.53C95.5129 132.15 95.8727 131.727 96.2094 131.267C97.2935 129.787 97.9052 128.281 97.7735 126.819C97.7163 126.184 97.5158 125.579 97.1632 125.016L97.092 124.905C94.9979 121.715 90.2564 120.884 87.8409 123.177L87.7881 123.229L87.7438 123.094C87.5422 122.5 87.2737 121.91 86.9271 121.351C85.5935 119.197 83.4313 117.968 80.3416 118.171L80.2334 118.179C77.2613 118.404 75.3658 119.869 74.3991 122.137C74.076 122.894 73.8773 123.698 73.7779 124.512L73.7651 124.622C73.7571 124.694 73.7499 124.765 73.7437 124.835L73.7341 124.947L73.6099 124.877C73.4128 124.768 73.2081 124.66 72.9971 124.555C72.117 124.12 71.2455 123.805 70.4141 123.663L70.3259 123.649C67.4528 123.198 65.6724 124.917 65.7367 129.142L65.7383 129.233L65.7291 129.285C65.7116 129.377 65.6858 129.49 65.6527 129.612C65.5594 129.957 65.4288 130.308 65.2605 130.632L65.2265 130.696C64.7919 131.498 64.2098 131.959 63.438 131.988L63.3767 131.989C62.594 131.996 62.5987 133.168 63.3814 133.168ZM85.9247 121.971C86.2898 122.561 86.5569 123.196 86.7396 123.832C86.8035 124.054 86.8521 124.26 86.8873 124.443L86.9131 124.587L86.9228 124.653C86.991 125.215 87.7276 125.362 88.0116 124.889L88.0288 124.858C89.4857 122.108 94.2663 122.613 96.164 125.642C96.4171 126.046 96.5585 126.472 96.5992 126.925C96.6999 128.042 96.1889 129.3 95.2584 130.57C94.9532 130.987 94.6252 131.373 94.2975 131.718L94.2411 131.777L94.133 131.888C94.098 131.924 94.0641 131.957 94.0314 131.989L65.7762 131.989L65.7809 131.984C65.9761 131.744 66.151 131.474 66.3059 131.176C66.5167 130.771 66.6764 130.342 66.7905 129.92C66.8315 129.768 66.864 129.626 66.8871 129.505L66.8998 129.434C66.9035 129.412 66.9066 129.392 66.9091 129.374L66.9131 129.343L66.9172 129.299L66.9179 129.232L66.9167 129.208L66.914 129.029C66.8973 127.154 67.2661 125.953 67.9206 125.325C68.4573 124.81 69.2279 124.656 70.2152 124.825C70.9191 124.946 71.6884 125.224 72.4746 125.612C72.861 125.803 73.2258 126.008 73.5568 126.213L73.6889 126.296C73.7099 126.309 73.7303 126.322 73.7502 126.335L73.8872 126.425L73.9646 126.478C74.3628 126.76 74.9057 126.464 74.8944 125.985L74.8892 125.884C74.8761 125.56 74.8889 125.138 74.9478 124.655C75.0347 123.945 75.2072 123.247 75.4833 122.599C76.2725 120.748 77.7648 119.578 80.2196 119.363L80.3224 119.355C83.0114 119.15 84.7983 120.152 85.9247 121.971Z" fill="#2E186A"/>
<path fill-rule="evenodd" clip-rule="evenodd" d="M244.411 138.611C244.736 138.611 245 138.874 245 139.2C245 139.514 244.755 139.77 244.445 139.788L244.411 139.789H0.589415C0.26389 139.789 0 139.526 0 139.2C0 138.886 0.245377 138.63 0.554782 138.612L0.589415 138.611H244.411Z" fill="#2E186A"/>
</svg>
