<svg width="18" height="20" viewBox="0 0 18 20" fill="none" xmlns="http://www.w3.org/2000/svg">
<path fill-rule="evenodd" clip-rule="evenodd" d="M3.84844 6.99844C3.84844 5.67955 4.28903 4.38845 5.13374 3.43815C5.96455 2.50349 7.2291 1.84844 8.99844 1.84844C10.7678 1.84844 12.0323 2.50349 12.8631 3.43815C13.7078 4.38845 14.1484 5.67955 14.1484 6.99844C14.1484 8.25803 14.775 9.19664 15.2526 9.91216L15.2912 9.96993C15.8095 10.7474 16.1484 11.2922 16.1484 11.9984C16.1484 12.9727 15.4547 13.7562 14.0149 14.3347C12.5974 14.9042 10.7169 15.1484 8.99844 15.1484C7.27997 15.1484 5.39943 14.9042 3.982 14.3347C2.54217 13.7562 1.84844 12.9727 1.84844 11.9984C1.84844 11.305 2.17265 10.8281 2.69655 10.0739C3.20017 9.34883 3.84844 8.40629 3.84844 6.99844ZM8.99844 0.148438C6.76779 0.148438 5.03234 0.993384 3.86314 2.30873C2.70785 3.60843 2.14844 5.31733 2.14844 6.99844C2.14844 7.83197 1.7967 8.38943 1.30033 9.10404L1.23059 9.20411C0.760997 9.8769 0.148438 10.7545 0.148438 11.9984C0.148438 14.0242 1.67693 15.2407 3.34821 15.9122C5.0419 16.5927 7.16136 16.8484 8.99844 16.8484C10.8355 16.8484 12.955 16.5927 14.6487 15.9122C16.3199 15.2407 17.8484 14.0242 17.8484 11.9984C17.8484 10.7388 17.2219 9.80023 16.7442 9.08471L16.7057 9.02694C16.1874 8.24952 15.8484 7.70466 15.8484 6.99844C15.8484 5.31733 15.289 3.60843 14.1337 2.30873C12.9645 0.993384 11.2291 0.148438 8.99844 0.148438ZM6.52694 17.2912C6.91446 17.0328 7.43698 17.1347 7.69948 17.5178L7.7058 17.5263C7.71488 17.5382 7.73257 17.5605 7.75874 17.59C7.81165 17.6495 7.89539 17.7337 8.00844 17.8184C8.23198 17.9861 8.55745 18.1484 8.99844 18.1484C9.43943 18.1484 9.7649 17.9861 9.98844 17.8184C10.1015 17.7337 10.1852 17.6495 10.2381 17.59C10.2643 17.5605 10.282 17.5382 10.2911 17.5263L10.2974 17.5178C10.5599 17.1347 11.0824 17.0328 11.4699 17.2912C11.8605 17.5516 11.9661 18.0793 11.7057 18.4699L10.9984 17.9984C11.7057 18.4699 11.7055 18.4703 11.7052 18.4706L11.7048 18.4713L11.7038 18.4727L11.7017 18.4758L11.6967 18.4832L11.6833 18.5023C11.673 18.5168 11.6596 18.5351 11.6433 18.5565C11.6107 18.5993 11.5659 18.6551 11.5087 18.7194C11.395 18.8474 11.2287 19.0132 11.0084 19.1784C10.5653 19.5108 9.89078 19.8484 8.99844 19.8484C8.1061 19.8484 7.43157 19.5108 6.98844 19.1784C6.76815 19.0132 6.60189 18.8474 6.48814 18.7194C6.43097 18.6551 6.38616 18.5993 6.35357 18.5565C6.33725 18.5351 6.32391 18.5168 6.31354 18.5023L6.30017 18.4832L6.29514 18.4758L6.29303 18.4727L6.29208 18.4713L6.29163 18.4706C6.29141 18.4703 6.29119 18.4699 6.99844 17.9984L6.29119 18.4699C6.0308 18.0793 6.13634 17.5516 6.52694 17.2912Z" fill="#525252"/>
</svg>
