<?xml version="1.0" ?><!DOCTYPE svg  PUBLIC '-//W3C//DTD SVG 1.1//EN'  'http://www.w3.org/Graphics/SVG/1.1/DTD/svg11.dtd'><svg enable-background="new 0 0 48 48" height="48px" id="Layer_3" version="1.1" viewBox="0 0 48 48" width="48px" xml:space="preserve" xmlns="http://www.w3.org/2000/svg" xmlns:xlink="http://www.w3.org/1999/xlink"><path d="M0,9v5.75v2.211v13.445v4.031V35v4h48v-4v-0.562v-4.031v-0.381v-0.088V25.75v-11V14V9H0z M24.001,33.072  c-1.235,0-2.425-0.16-3.543-0.457l0.013,0.006l-3.077,1.486l-0.728,0.365c-0.06,0.023-0.125,0.037-0.194,0.037  c-0.315,0-0.57-0.256-0.57-0.57c0-0.059,0.017-0.113,0.033-0.166l-0.004-0.004l0.657-2.898l0.019,0.008  c-2.644-1.795-4.335-4.531-4.335-7.597c0-5.408,5.251-9.792,11.729-9.792c3.964,0,7.46,1.646,9.583,4.159l-11.878,5.299  c-0.792,0.353-1.039,0-1.039,0l-2.035-1.815c-0.012-0.012-0.024-0.021-0.037-0.033l-0.016-0.014l-0.003,0.002  c-0.12-0.103-0.271-0.171-0.44-0.171c-0.38,0-0.688,0.308-0.688,0.688c0,0.082,0.021,0.157,0.047,0.23l-0.003,0.002l0.005,0.01  c0.009,0.023,0.021,0.044,0.033,0.066l2.119,4.276c0.017,0.045,0.04,0.084,0.062,0.125l0.061,0.123l0.016-0.008  c0.198,0.281,0.509,0.477,0.879,0.477c0.219,0,0.411-0.082,0.582-0.191l0.012,0.014l13.181-7.894  c0.816,1.335,1.287,2.844,1.287,4.447C35.729,28.689,30.479,33.072,24.001,33.072z" fill="#241F20"/></svg>