<?xml version="1.0" ?><svg viewBox="0 0 512 512" xmlns="http://www.w3.org/2000/svg"><g id="Mentality_analyst"><path d="M413.8008,68.2761c-15.976,0-27.2612,13.9021-33.2539,23.7556a5.6084,5.6084,0,0,1-9.644-.1226c-5.6655-9.8459-16.6255-23.633-33.5781-23.633-21.1016,0-38.2076,16.5484-38.2076,36.9616a35.9371,35.9371,0,0,0,.6665,6.8536l-.01.0039c.0181.09.24,1.0952.3379,1.5053,7.6513,32.7181,45.5122,62.3321,64.522,75.4249a19.2593,19.2593,0,0,0,21.8593,0c19.0093-13.0928,56.87-42.7068,64.5215-75.4249.0982-.41.32-1.415.3379-1.5053l-.01-.0039a35.929,35.929,0,0,0,.6666-6.8536C452.0084,84.8245,434.9024,68.2761,413.8008,68.2761Zm-67.6631,51.1946a8.1465,8.1465,0,1,1,8.1465,8.1465A8.1465,8.1465,0,0,1,346.1377,119.4707Zm50.3428,30.3918c-6.8056,6.7139-13.8681,9.1124-20.3262,9.1124-9.2431,0-17.25-4.9112-21.5087-9.1124a6,6,0,0,1,8.4052-8.5644,23.6938,23.6938,0,0,0,8.45,4.8769c5.96,1.8418,11.3741.252,16.5518-4.8554a6,6,0,1,1,8.4277,8.5429Zm.3609-22.2453a8.1464,8.1464,0,1,1,8.1464-8.1465A8.1465,8.1465,0,0,1,396.8414,127.6172Z"/><path d="M269.7046,371.7759l.0225-.2852c.9355-17.9424-4.6631-33.1728-16.6406-45.2666-29.669-29.9575-89.5581-31.1335-104.4107-30.9475-1.4931.0188-6.8383-.05-11.063.0012-20.2939.2491-72.396,3.6563-99.4218,30.9463-11.95,12.0655-17.55,27.253-16.6465,45.14.0312,3.1836.5918,68.8506-5.8945,103.7285a17.3929,17.3929,0,0,0,17.1367,20.52H260.4712a17.3889,17.3889,0,0,0,17.1778-20.1436C274.2554,454.3315,266.6861,401.9136,269.7046,371.7759Zm-119.48-64.4942a241.4469,241.4469,0,0,1,25.726,1.4366c-9.1645,25.6123-26.7959,36.8359-33.0756,40.1438-6.2559-3.2864-23.6363-14.355-32.857-39.5a242.1869,242.1869,0,0,1,24.7237-1.9849C137.2134,307.3062,147.5474,307.2827,150.2242,307.2817ZM28.5933,481.644a5.2388,5.2388,0,0,1-1.1465-4.3584c6.8291-36.7168,6.1289-103.3593,6.0957-106.1777l-.0078-.2422c-.7637-14.623,3.544-26.458,13.168-36.1826C59.4258,321.8259,79.357,314.97,97.9864,311.33c8.3838,24.6321,23.7895,38.2259,33.6186,44.7449a11.78,11.78,0,0,1,5.2657,9.8242V483.6128H79.47a285.0748,285.0748,0,0,0,3.4272-61.81,6,6,0,0,0-11.9648.916,280.0677,280.0677,0,0,1-3.6377,60.8936H32.7867A5.439,5.439,0,0,1,28.5933,481.644Zm235.99.0713a5.3334,5.3334,0,0,1-4.1123,1.8975H224.79a280.0977,280.0977,0,0,1-3.6377-60.8936,6,6,0,0,0-11.9648-.916,285.1047,285.1047,0,0,0,3.4272,61.81H148.8707V365.8987a11.7689,11.7689,0,0,1,5.2548-9.8172c9.9532-6.6008,25.6333-20.4611,33.9473-45.6938,20.0337,3.3474,42.58,10.228,56.502,24.2954,9.5937,9.6934,13.9043,21.4863,13.1757,36.0449-3.0107,30.418,3.7491,79.8545,8.0508,106.6436A5.3158,5.3158,0,0,1,264.5835,481.7153Z"/><path d="M143.0044,182.0562c-29.85,0-54.1347,23.0205-54.1347,51.3164s24.2851,51.3164,54.1347,51.3164,54.1348-23.0205,54.1348-51.3164S172.8541,182.0562,143.0044,182.0562Zm0,90.6328c-23.2334,0-42.1347-17.6377-42.1347-39.3164s18.9013-39.3164,42.1347-39.3164,42.1348,17.6376,42.1348,39.3164S166.2378,272.689,143.0044,272.689Z"/><path d="M157.37,242.9553h-28.731a5.112,5.112,0,0,0-4.86,6.6814c1.8672,5.8535,6.7027,13.4331,19.2251,13.4331s17.3584-7.58,19.2256-13.4333A5.1119,5.1119,0,0,0,157.37,242.9553Z"/><path d="M171.2,413.5852a8.7886,8.7886,0,1,0,8.788,8.7886A8.7885,8.7885,0,0,0,171.2,413.5852Z"/><path d="M171.2,443.7808a8.7886,8.7886,0,1,0,8.788,8.7885A8.7883,8.7883,0,0,0,171.2,443.7808Z"/><path d="M210.939,366.4873H187.4708a4.9106,4.9106,0,0,0-4.9107,4.9106v11.7344a16.6448,16.6448,0,1,0,33.29,0V371.3979A4.9106,4.9106,0,0,0,210.939,366.4873Z"/><path d="M291.5674,224.2461a6,6,0,0,0,6,6H367.93a6,6,0,0,0,0-12H297.5674A6,6,0,0,0,291.5674,224.2461Z"/><path d="M297.5674,253.9971h39.877a6,6,0,0,0,0-12h-39.877a6,6,0,0,0,0,12Z"/><path d="M236.3218,283.1782a1.0134,1.0134,0,0,1,.1172-1.1543l22.2725-28.8017a22.6051,22.6051,0,0,0,4.7011-13.7618V135.854a6,6,0,0,0-12,0V239.46a10.551,10.551,0,0,1-2.1933,6.4209l-22.2725,28.8018a13.0961,13.0961,0,0,0,10.36,21.1084H393.6978a6,6,0,0,0,0-12H237.3072A1.0151,1.0151,0,0,1,236.3218,283.1782Z"/><path d="M474.146,16.3872H273.91a22.5221,22.5221,0,0,0-22.4971,22.4971V82.6694a6,6,0,0,0,12,0V38.8843A10.509,10.509,0,0,1,273.91,28.3872H474.146a10.509,10.509,0,0,1,10.4971,10.4971v234.41a10.509,10.509,0,0,1-10.4971,10.4971H460.2134a6,6,0,0,0,0,12H474.146a22.5221,22.5221,0,0,0,22.4971-22.4971V38.8843A22.5221,22.5221,0,0,0,474.146,16.3872Z"/><path d="M91.8951,151.1387h89.854a21.38,21.38,0,0,0,21.3559-21.3555V114.7437h73.9087a6,6,0,0,0,0-12H203.105V82.3818a21.38,21.38,0,0,0-21.3559-21.3559H91.8951a21.38,21.38,0,0,0-21.356,21.3559v47.4014A21.38,21.38,0,0,0,91.8951,151.1387Zm-9.356-68.7569a9.3668,9.3668,0,0,1,9.356-9.3559h89.854a9.3667,9.3667,0,0,1,9.3559,9.3559v47.4014a9.3664,9.3664,0,0,1-9.3559,9.3555H91.8951a9.3664,9.3664,0,0,1-9.356-9.3555Z"/><path d="M103.4332,99.6694h66.8623a6,6,0,0,0,0-12H103.4332a6,6,0,0,0,0,12Z"/><path d="M103.4332,120.6885h33.3891a6,6,0,0,0,0-12H103.4332a6,6,0,0,0,0,12Z"/><path d="M452.857,342.4731h-8.7593c.0142-.1679.0254-.3369.0254-.5087V301.1772a22.6027,22.6027,0,0,0-8.6978-17.746l-23.8193-18.462a6,6,0,1,0-7.3516,9.4844l23.8194,18.4619a10.5218,10.5218,0,0,1,4.0493,8.2617v40.7872c0,.1718.0117.3408.0259.5087H384.16A21.38,21.38,0,0,0,362.8038,363.83V411.231A21.38,21.38,0,0,0,384.16,432.5864H452.857a21.38,21.38,0,0,0,21.3559-21.3554V363.83A21.38,21.38,0,0,0,452.857,342.4731Zm9.3559,68.7579a9.3666,9.3666,0,0,1-9.3559,9.3554H384.16a9.3666,9.3666,0,0,1-9.3559-9.3554V363.83a9.3669,9.3669,0,0,1,9.3559-9.3565H452.857a9.3669,9.3669,0,0,1,9.3559,9.3565Z"/><path d="M441.4034,369.1167H395.6978a6,6,0,0,0,0,12h45.7056a6,6,0,0,0,0-12Z"/><path d="M423.0269,390.1362H395.6978a6,6,0,0,0,0,12h27.3291a6,6,0,0,0,0-12Z"/></g></svg>