<?xml version="1.0" ?><svg data-name="Your Icons" id="Your_Icons" viewBox="0 0 48 48" xmlns="http://www.w3.org/2000/svg"><title/><path d="M8,13h6V26.26A8,8,0,0,0,16,42a7.77,7.77,0,0,0,1.46-.14,2.78,2.78,0,0,0,.87.14c2.17,0,2.17-2,4.33-2s2.17,2,4.33,2,2.17-2,4.34-2,2.16,2,4.33,2c1.56,0,2-1,2.93-1.61A3,3,0,0,0,40,37.84V11a5,5,0,0,0-5-5H11a4.62,4.62,0,0,0-1,.1h0A5,5,0,0,0,6,11,2,2,0,0,0,8,13Zm2,21a6,6,0,0,1,4-5.65,5.79,5.79,0,0,1,.93-.25l.13,0A5.86,5.86,0,0,1,16,28a6,6,0,1,1-6,6ZM35,8a3,3,0,0,1,3,3V37.84a1,1,0,0,1-.47.85,7.25,7.25,0,0,0-1.05.84c-.5.45-.54.47-.82.47s-.32,0-.81-.47a4.83,4.83,0,0,0-7,0c-.49.45-.54.47-.81.47s-.31,0-.8-.47A4.91,4.91,0,0,0,22.92,38l0,0a8.29,8.29,0,0,0,.74-1.76l.06-.24a5.94,5.94,0,0,0,.14-.71,2.36,2.36,0,0,0,0-.28A7.77,7.77,0,0,0,24,34a7.9,7.9,0,0,0-.59-3H35a1,1,0,0,0,0-2H22.46a1.06,1.06,0,0,0-.19,0,8.12,8.12,0,0,0-2.4-2H35a1,1,0,0,0,0-2H19a1,1,0,0,0-1,1,.88.88,0,0,0,.06.28A7.82,7.82,0,0,0,16,26V11a7,7,0,0,0-.67-3Zm-24.78.1h0l.21,0A3.06,3.06,0,0,1,11,8a3,3,0,0,1,2.12.87,3.1,3.1,0,0,1,.82,1.53A5.8,5.8,0,0,1,14,11H8A3,3,0,0,1,10.22,8.1Z"/><path d="M29,14h6a1,1,0,0,0,0-2H29a1,1,0,0,0,0,2Z"/><path d="M29,18h6a1,1,0,0,0,0-2H29a1,1,0,0,0,0,2Z"/><path d="M29,22h6a1,1,0,0,0,0-2H29a1,1,0,0,0,0,2Z"/><path d="M20,22h4a2,2,0,0,0,2-2V14a2,2,0,0,0-2-2H20a2,2,0,0,0-2,2v6A2,2,0,0,0,20,22Zm0-8h4v6H20Z"/><path d="M19.2,33.78a1,1,0,0,0,0-1.41,1,1,0,0,0-1.42,0l-2.43,2.33L14.2,33.54A1,1,0,1,0,12.81,35l1.88,1.8a1,1,0,0,0,1.38,0Z"/></svg>