<?xml version="1.0" ?><!DOCTYPE svg  PUBLIC '-//W3C//DTD SVG 1.1//EN'  'http://www.w3.org/Graphics/SVG/1.1/DTD/svg11.dtd'><svg enable-background="new 0 0 512 512" height="512px" id="Mental_x5F_health" version="1.1" viewBox="0 0 512 512" width="512px" xml:space="preserve" xmlns="http://www.w3.org/2000/svg" xmlns:xlink="http://www.w3.org/1999/xlink"><g><path d="M434.896,260.955l8.576-4.285l-46.567-93.208h-39.638v10h33.456l43.711,87.494h-149.29v215.334h215.333V260.955H434.896z    M490.478,466.289H295.145V270.955h195.333V466.289z"/><path d="M230.007,119.063v31.673h-31.673v35.451h31.673v31.673h35.451v-31.673h31.672v-35.451h-31.672v-31.673H230.007z    M287.13,160.736v15.451h-31.671v31.673h-15.451v-31.673h-31.673v-15.451h31.673v-31.673h15.451v31.673H287.13z"/><path d="M266.298,394.381h-10v21.482h-90.301c-1.922-16.578-16.027-29.572-33.096-29.682l-45.369-0.301   c-5.743-0.051-11.1-2.357-15.084-6.496c-3.941-4.096-6.042-9.465-5.927-15.141l0.608-5.375c0.799-7.4-2.202-14.586-8.028-19.221   l-4.549-3.619c-2.653-2.111-3.664-5.672-2.516-8.861c1.79-4.973,1.299-10.449-1.346-15.025l-2.251-3.893   c-1.179-2.041-1.38-4.5-0.55-6.75c3.208-8.695,6.046-20.939,1.353-29.885c-2.429-4.629-6.655-7.83-12.223-9.258   c-4.316-1.105-7.933-2.666-10.757-4.645c-2.624-1.833-4.278-4.624-4.659-7.857c-0.39-3.313,0.657-6.642,2.873-9.134l37.54-42.25   l0.108-0.126c3.9-4.694,4.055-13.666,4.004-16.393v-42.672c0-14.464,4.369-28.395,12.634-40.284l12.11-17.4   c3.464-4.978,9.689-7.14,15.495-5.371c15.275,4.633,25.852,7.849,41.462,12.595l8.434,2.564l2.909-9.568l-8.435-2.563   c-15.613-4.747-26.191-7.964-41.465-12.597c-9.966-3.028-20.66,0.68-26.608,9.229L70.552,93.288   c-9.437,13.576-14.424,29.48-14.424,45.994l0.001,42.813c0.063,3.575-0.633,8.49-1.663,9.817l-37.465,42.166   c-4.111,4.622-6.054,10.799-5.331,16.945c0.708,6.021,3.939,11.447,8.858,14.882c3.808,2.668,8.521,4.732,14.007,6.139   c2.868,0.736,4.727,2.074,5.851,4.217c2.296,4.377,1.611,12.314-1.88,21.777c-1.862,5.049-1.397,10.596,1.276,15.217l2.25,3.893   c1.168,2.02,1.385,4.438,0.594,6.633c-2.601,7.227-0.311,15.293,5.699,20.072l4.549,3.621c3.129,2.488,4.741,6.346,4.314,10.295   l-0.63,5.57l-0.03,0.414c-0.247,8.457,2.847,16.471,8.714,22.564c5.863,6.092,13.748,9.488,22.211,9.563l45.381,0.301   c11.602,0.074,21.253,8.629,23.078,19.738l-31.615,40.902v18.041H273.63v-59h-7.332V394.381z M263.63,445.455h-22.999v10h22.999   v9.408H134.298v-4.627l26.567-34.373H263.63V445.455z"/><path d="M119.203,45.712l93.658,9.176c7.187,0.703,14.102,2.646,20.552,5.772l4.362-8.998c-7.518-3.645-15.572-5.908-23.939-6.728   l-93.91-9.2l-0.487-0.023c-12.857,0-24.792,5.8-32.741,15.909l7.861,6.182C100.551,50.18,109.522,45.783,119.203,45.712z"/><rect height="87.992" width="10" x="256.298" y="293.852"/><path d="M152.29,168.461c0,52.628,42.816,95.443,95.443,95.443s95.442-42.815,95.442-95.443c0-52.627-42.814-95.442-95.442-95.442   S152.29,115.834,152.29,168.461z M247.733,83.019c47.113,0,85.442,38.329,85.442,85.442s-38.329,85.443-85.442,85.443   c-47.114,0-85.443-38.33-85.443-85.443S200.619,83.019,247.733,83.019z"/><path d="M247.733,243.006c41.103,0,74.543-33.44,74.543-74.545c0-41.104-33.44-74.544-74.543-74.544   c-18.766,0-36.697,6.997-50.491,19.702l6.775,7.355c11.942-11,27.467-17.058,43.716-17.058c35.589,0,64.543,28.954,64.543,64.544   s-28.954,64.545-64.543,64.545c-35.59,0-64.544-28.955-64.544-64.545c0-12.729,3.7-25.041,10.699-35.604l-8.336-5.523   c-8.088,12.205-12.363,26.427-12.363,41.127C173.188,209.566,206.629,243.006,247.733,243.006z"/><path d="M376.268,283.709h-74.687v30.896h74.687V283.709z M366.268,304.605h-54.687v-10.896h54.687V304.605z"/><rect height="10" width="61.343" x="371.268" y="432.332"/><rect height="10" width="110.159" x="371.268" y="409.607"/><rect height="10" width="110.159" x="371.268" y="341.729"/><rect height="10" width="18.736" x="462.69" y="364.453"/><rect height="10" width="78.329" x="371.268" y="364.453"/><rect height="10" width="63.659" x="417.768" y="294.158"/><rect height="10" width="16.162" x="387.605" y="294.158"/><polygon points="335.759,343.697 335.759,333.697 302.426,333.697 302.426,382.484 351.212,382.484 351.212,360.865    341.212,360.865 341.212,372.484 312.426,372.484 312.426,343.697  "/><polygon points="328.888,355.654 321.169,347.936 314.099,355.006 328.888,369.797 365.312,333.373 358.239,326.303  "/><polygon points="341.212,440.363 312.426,440.363 312.426,411.576 335.759,411.576 335.759,401.576 302.426,401.576    302.426,450.363 351.212,450.363 351.212,428.744 341.212,428.744  "/><polygon points="328.888,423.533 321.169,415.814 314.099,422.885 328.888,437.676 365.312,401.252 358.239,394.182  "/></g></svg>