<svg width="32" height="32" viewBox="0 0 32 32" fill="none" xmlns="http://www.w3.org/2000/svg">
<mask id="mask0_61_148" style="mask-type:luminance" maskUnits="userSpaceOnUse" x="1" y="1" width="30" height="30">
<path d="M31 1H1V31H31V1Z" fill="white"/>
</mask>
<g mask="url(#mask0_61_148)">
<mask id="mask1_61_148" style="mask-type:luminance" maskUnits="userSpaceOnUse" x="1" y="1" width="30" height="30">
<path d="M31 1H1V31H31V1Z" fill="white"/>
</mask>
<g mask="url(#mask1_61_148)">
<path d="M10.6877 23.6288L8.56267 21.5027L7.06348 23.0008L10.6877 26.625L17.0627 20.25L15.5646 18.7519L10.6877 23.6288ZM28.7502 30.875H24.5002V28.75H28.7502V16H24.5002V7.5C24.4988 6.37326 24.0506 5.29307 23.2538 4.49635C22.4571 3.69962 21.3769 3.25141 20.2502 3.25V1.125C21.9403 1.12697 23.5607 1.79925 24.7558 2.99437C25.9509 4.18949 26.6232 5.80985 26.6252 7.5V13.875H28.7502C29.3136 13.8756 29.8538 14.0996 30.2522 14.498C30.6506 14.8964 30.8746 15.4366 30.8752 16V28.75C30.8746 29.3134 30.6506 29.8536 30.2522 30.252C29.8538 30.6504 29.3136 30.8744 28.7502 30.875Z" fill="#FF573B"/>
<path d="M20.25 13.875H18.125V7.5C18.125 5.80924 17.4534 4.18774 16.2578 2.99219C15.0623 1.79665 13.4408 1.125 11.75 1.125C10.0592 1.125 8.43774 1.79665 7.24219 2.99219C6.04665 4.18774 5.375 5.80924 5.375 7.5V13.875H3.25C2.68641 13.875 2.14591 14.0989 1.7474 14.4974C1.34888 14.8959 1.125 15.4364 1.125 16V28.75C1.125 29.3136 1.34888 29.8541 1.7474 30.2526C2.14591 30.6511 2.68641 30.875 3.25 30.875H20.25C20.8136 30.875 21.3541 30.6511 21.7526 30.2526C22.1511 29.8541 22.375 29.3136 22.375 28.75V16C22.375 15.4364 22.1511 14.8959 21.7526 14.4974C21.3541 14.0989 20.8136 13.875 20.25 13.875ZM7.5 7.5C7.5 6.37283 7.94777 5.29183 8.7448 4.4948C9.54183 3.69777 10.6228 3.25 11.75 3.25C12.8772 3.25 13.9582 3.69777 14.7552 4.4948C15.5522 5.29183 16 6.37283 16 7.5V13.875H7.5V7.5ZM20.25 28.75H3.25V16H20.25V28.75Z" fill="#FF573B"/>
</g>
</g>
</svg>
