<svg width="49" height="49" viewBox="0 0 49 49" fill="none" xmlns="http://www.w3.org/2000/svg">
<g clip-path="url(#clip0_61_201)">
<path d="M24.5 48.5C11.267 48.5 0.5 37.733 0.5 24.5C0.5 11.267 11.267 0.5 24.5 0.5C37.733 0.5 48.5 11.267 48.5 24.5C48.5 37.733 37.733 48.5 24.5 48.5ZM24.5 2.5C12.369 2.5 2.5 12.369 2.5 24.5C2.5 36.631 12.369 46.5 24.5 46.5C36.631 46.5 46.5 36.631 46.5 24.5C46.5 12.369 36.631 2.5 24.5 2.5Z" fill="black"/>
<path d="M31.571 17.429C31.181 17.039 30.547 17.039 30.157 17.429L24.5 23.086L18.843 17.429C18.453 17.039 17.819 17.039 17.429 17.429C17.039 17.819 17.039 18.453 17.429 18.843L23.086 24.5L17.429 30.157C17.039 30.547 17.039 31.181 17.429 31.571C17.819 31.961 18.453 31.961 18.843 31.571L24.5 25.914L30.157 31.571C30.547 31.961 31.181 31.961 31.571 31.571C31.961 31.181 31.961 30.547 31.571 30.157L25.914 24.5L31.571 18.843C31.961 18.453 31.961 17.819 31.571 17.429Z" fill="black"/>
</g>
<defs>
<clipPath id="clip0_61_201">
<rect width="48" height="48" fill="white" transform="translate(0.5 0.5)"/>
</clipPath>
</defs>
</svg>
