<svg width="45" height="32" viewBox="0 0 45 32" fill="none" xmlns="http://www.w3.org/2000/svg">
<mask id="mask0_61_218" style="mask-type:luminance" maskUnits="userSpaceOnUse" x="1" y="1" width="43" height="30">
<path d="M44 1H1V31H44V1Z" fill="white"/>
</mask>
<g mask="url(#mask0_61_218)">
<mask id="mask1_61_218" style="mask-type:luminance" maskUnits="userSpaceOnUse" x="1" y="1" width="43" height="30">
<path d="M44 1H1V31H44V1Z" fill="white"/>
</mask>
<g mask="url(#mask1_61_218)">
<path d="M40.8838 8.013C39.9925 7.922 39.8315 8.013 39.5772 8.76667C39.3578 9.41534 39.3858 9.68834 39.6962 9.88434C40.0065 10.0803 39.9552 10.1457 39.4908 10.148C38.5435 10.148 38.0372 9.57401 37.1575 7.46001C36.782 6.51719 36.313 5.61435 35.7575 4.765C35.3748 4.282 35.5242 4.81167 36.1915 6.26767C36.653 7.24149 37.0581 8.24103 37.4048 9.26134L37.5915 10.0033L23.0222 9.91234C14.0225 9.85634 8.13085 9.93567 7.62218 10.1153C6.17551 10.6193 6.32718 9.47367 8.20085 5.69834C8.52997 5.12141 8.78701 4.50625 8.96618 3.86667C8.03217 5.04032 7.28884 6.35374 6.76351 7.75867C6.01218 9.56701 5.43351 10.1667 4.50018 10.1293C4.16185 10.1177 4.05218 10.0383 4.26685 9.95434C4.75685 9.75834 4.74985 8.51934 4.26685 8.11101C3.2964 7.87196 2.27161 8.00516 1.39451 8.48434C0.638515 8.95101 1.06551 9.55534 2.18085 9.59734L3.30318 9.63934L2.10618 9.84234C0.500848 10.113 1.34551 10.5003 3.67185 10.5587L5.39151 10.603L5.59451 12.003C5.65663 12.5828 5.78503 13.1535 5.97718 13.704C6.5224 14.0339 7.13026 14.2469 7.76218 14.3293C8.84145 14.5948 9.87436 15.0219 10.8258 15.5963L12.2842 16.5297L11.3345 16.924C8.95702 17.3039 6.53814 17.3503 4.14785 17.0617C3.44785 17.0057 2.85518 16.077 2.85518 15.0667C2.85518 13.9513 2.55418 13.7717 1.93585 14.516C1.32333 18.1357 1.25569 21.8266 1.73518 25.4663C1.94051 25.4943 2.91585 25.5387 3.90285 25.5643L11.2365 25.772L14.3048 25.8117C12.0928 25.702 11.8338 25.6297 11.8338 25.1117C11.8338 24.5377 12.1022 24.5237 22.1332 24.5237C32.2202 24.5237 32.4302 24.5353 32.2785 25.1117C32.1432 25.6273 31.8118 25.7113 29.5368 25.7977C27.0098 25.8957 27.0262 25.898 30.2368 25.9587C33.8399 25.9702 37.4398 25.7402 41.0122 25.2703C41.7122 25.156 41.7728 25.184 41.3108 25.3847C40.7462 25.632 40.7555 25.6553 41.4602 25.8163C41.8732 25.912 41.4322 25.9377 40.4848 25.8747C39.5375 25.8117 38.8258 25.8747 38.9098 26.01C39.2902 26.626 19.2235 26.9433 9.65918 26.4767C8.11844 26.48 6.58113 26.3315 5.06951 26.0333C5.14185 25.9167 4.40218 25.8303 3.43618 25.8397C2.47018 25.849 1.66051 25.9937 1.66285 26.157C1.66285 26.9223 2.26018 27.1837 4.20851 27.291L6.29451 27.403L3.97518 27.3797L1.65351 27.3563V28.1987C1.65921 28.6885 1.7648 29.1721 1.96385 29.6197C2.22751 30.112 2.60551 30.1983 4.49785 30.1983C6.39018 30.1983 6.76585 30.112 7.03185 29.6197C7.45185 28.831 7.42151 27.886 6.96651 27.704C6.76118 27.62 13.5302 27.543 22.0072 27.5337C30.4842 27.5243 37.2462 27.627 37.0315 27.767C36.5882 28.047 36.8448 29.6057 37.3932 29.9743C38.9165 30.3115 40.4997 30.2666 42.0015 29.8437C42.2616 29.4169 42.3875 28.9219 42.3632 28.4227V27.361L40.0415 27.3843L37.7222 27.4077L39.8828 27.2957L42.0458 27.186L42.3888 25.926C42.6675 22.024 42.6269 18.1057 42.2675 14.2103C42.1112 13.368 40.2142 11.8467 39.9132 12.3227C39.7452 12.5863 39.6798 12.556 39.6798 12.1873C39.6798 11.1607 39.1385 11.3917 38.8445 12.5467C38.5995 13.5127 38.6112 13.7413 38.9588 13.7413C39.0852 13.7242 39.2008 13.6613 39.2839 13.5645C39.3669 13.4677 39.4115 13.3438 39.4092 13.2163C39.4442 12.717 39.4512 12.717 39.5818 13.2163C39.6798 13.5897 40.0345 13.7483 40.8185 13.7647C41.4252 13.7647 41.7518 13.8557 41.5442 13.9397C41.3365 14.0237 41.2455 14.2173 41.3412 14.3713C41.437 14.8109 41.4087 15.2684 41.2595 15.6928C41.1104 16.1172 40.8462 16.4917 40.4965 16.7747C37.9095 17.3117 35.2449 17.36 32.6402 16.917L31.7418 16.5297L33.1558 15.6267C34.1559 15.0409 35.2382 14.6083 36.3665 14.3433C38.3008 13.9327 38.2612 13.9887 38.5458 11.3473C38.6205 10.6473 38.7465 10.5937 40.3658 10.5493C42.6992 10.4817 43.5205 10.1083 41.9198 9.84934L40.7228 9.64634L41.8452 9.60434C43.8448 9.52034 43.0818 8.237 40.8838 8.013ZM9.72684 12.8477C9.19777 12.3001 8.72847 11.6979 8.32685 11.051C8.94423 11.6016 9.51475 12.2025 10.0325 12.8477C10.563 13.394 11.0324 13.9964 11.4325 14.6443C10.8147 14.0942 10.2442 13.4932 9.72684 12.8477ZM7.87418 20.1253C7.96439 20.0817 8.06398 20.061 8.1641 20.0651C8.26423 20.0691 8.36181 20.0979 8.44818 20.1487C8.54618 20.249 8.37118 20.319 8.05385 20.3073C7.73651 20.2957 7.63385 20.221 7.87418 20.1253ZM6.67718 18.6297C6.76722 18.5854 6.8669 18.5644 6.96714 18.5685C7.06739 18.5725 7.16502 18.6016 7.25118 18.653C7.34918 18.7533 7.17185 18.8233 6.85685 18.8093C6.54185 18.7953 6.43685 18.7253 6.67718 18.6297ZM6.67718 19.8267C6.76739 19.783 6.86698 19.7623 6.9671 19.7664C7.06723 19.7705 7.16481 19.7992 7.25118 19.85C7.34918 19.9503 7.17185 20.0203 6.85685 20.0087C6.54185 19.997 6.43685 19.9223 6.67718 19.8267ZM5.53618 19.6843C5.12318 19.6843 4.95518 19.6167 5.16051 19.5327C5.40339 19.4504 5.66663 19.4504 5.90951 19.5327C6.11485 19.6167 5.94685 19.6843 5.53618 19.6843ZM3.59018 18.002C4.09508 18.0315 4.59596 18.1096 5.08585 18.2353C5.89318 18.4407 5.90718 18.4687 5.23518 18.4687C4.72851 18.4573 4.22557 18.3788 3.73951 18.2353C3.15385 18.0487 3.12118 17.9973 3.59018 18.002ZM4.55618 19.2527C4.65651 19.3507 4.47918 19.423 4.16418 19.409C3.84918 19.395 3.74418 19.3227 3.98218 19.227C4.07236 19.1829 4.17217 19.1621 4.27245 19.1666C4.37274 19.1711 4.4703 19.2007 4.55618 19.2527ZM3.35918 18.9517C3.45718 19.052 3.28218 19.122 2.96485 19.1103C2.64751 19.0987 2.54718 19.024 2.78518 18.9283C2.87534 18.8845 2.97495 18.8637 3.07512 18.8678C3.17528 18.8718 3.27288 18.9007 3.35918 18.9517ZM2.09218 17.3183L2.81551 17.841C2.88318 17.897 2.79918 17.9273 2.62885 17.9273C2.3337 17.8424 2.07771 17.6566 1.90551 17.4023C1.52518 16.9333 1.53918 16.9333 2.09218 17.3277V17.3183ZM2.66618 25.387C2.31851 25.373 2.24618 25.3007 2.48651 25.205C2.57672 25.1614 2.67631 25.1407 2.77644 25.1447C2.87656 25.1488 2.97414 25.1775 3.06051 25.2283C3.15851 25.3333 2.98118 25.408 2.66618 25.3963V25.387ZM7.03185 25.387C3.33351 25.0043 2.54251 24.421 2.54251 22.125C2.54251 21.299 2.58685 21.2733 3.66485 21.446C4.54418 21.6028 5.41744 21.7919 6.28285 22.013L7.78085 22.398L6.47185 22.23C5.45218 22.0993 5.19318 22.1507 5.30518 22.4633C5.42398 22.6258 5.57463 22.7623 5.74793 22.8646C5.92124 22.9669 6.11356 23.0328 6.31318 23.0583L7.18585 23.2473L6.36218 23.2847C5.90951 23.3033 5.54085 23.455 5.54085 23.6183C5.54085 23.7817 5.90951 23.9357 6.36218 23.959C7.06218 23.994 7.09018 24.0173 6.51151 24.1293C5.24918 24.3627 5.72751 25.1163 7.14851 25.1163C7.8957 25.1181 8.64158 25.179 9.37918 25.2983C10.2449 25.4733 10.2938 25.4313 10.2332 24.6263C10.1725 23.8213 10.0582 23.756 8.67685 23.5903L7.18585 23.413L8.53218 23.343L9.88085 23.273L8.83318 22.8437C7.84385 22.44 7.83451 22.426 8.68385 22.58C9.21391 22.6551 9.69822 22.9215 10.0455 23.3289C10.3928 23.7363 10.579 24.2567 10.5692 24.792C10.4572 25.7043 10.1959 25.7487 7.03185 25.4057V25.387ZM8.00018 24.3137C8.29439 24.2345 8.6043 24.2345 8.89851 24.3137C9.10151 24.3953 8.86351 24.4583 8.36885 24.4513C7.87418 24.4443 7.72018 24.4 8.00018 24.3137ZM39.7335 18.121C40.492 17.9733 41.2236 17.7113 41.9035 17.344C42.1555 17.1363 42.3702 17.0943 42.3702 17.253C42.3702 17.4117 42.0528 17.687 41.6702 17.8643C40.969 18.1133 40.2404 18.277 39.5002 18.352L38.0395 18.5177L39.7335 18.121ZM40.1862 19.2527C40.2842 19.3507 40.1068 19.423 39.7918 19.409C39.4768 19.395 39.3718 19.3227 39.6122 19.227C39.7011 19.1845 39.7992 19.1647 39.8977 19.1691C39.9962 19.1736 40.0921 19.2023 40.1768 19.2527H40.1862ZM38.9868 19.5513C39.0872 19.6517 38.9098 19.7217 38.5948 19.7077C38.2798 19.6937 38.1748 19.6237 38.4152 19.528C38.5035 19.4852 38.6011 19.4649 38.6993 19.469C38.7974 19.4731 38.893 19.5013 38.9775 19.5513H38.9868ZM36.8985 18.6367C37.1411 18.5528 37.4049 18.5528 37.6475 18.6367C37.8528 18.7183 37.6848 18.786 37.2742 18.786C36.8635 18.786 36.6838 18.7183 36.8892 18.6367H36.8985ZM36.8985 19.8337C37.1411 19.7498 37.4049 19.7498 37.6475 19.8337C37.8528 19.9153 37.6848 19.983 37.2742 19.983C36.8635 19.983 36.6838 19.9153 36.8892 19.8337H36.8985ZM36.0515 25.17C38.3125 24.967 39.2365 24.3743 37.6638 24.1387L36.8238 24.0127L37.6475 23.9683C38.1002 23.9427 38.4712 23.7957 38.4712 23.644C38.4712 23.4923 38.1002 23.308 37.6475 23.238C36.8798 23.1237 36.8915 23.112 37.7968 23.07C38.4735 23.0373 38.7698 22.8787 38.7698 22.5427C38.7698 22.0037 37.8878 22.076 35.4565 22.8483L34.1312 23.2637L35.4775 23.3407L36.8238 23.4177L35.3282 23.5997C33.5782 23.812 33.4755 23.7817 33.9585 23.2007C36.0445 22.3101 38.2427 21.7095 40.4918 21.4157C41.4555 21.2453 41.4625 21.2523 41.4625 22.447C41.4625 24.2857 40.5595 25.0137 37.9882 25.247C36.8542 25.352 35.4495 25.506 34.8685 25.59C34.447 25.6889 34.006 25.6663 33.5968 25.5247C33.2818 25.212 33.3332 24.2133 33.6645 24.2133C34.1312 24.2133 34.3155 24.7477 33.8978 24.8947C32.9878 25.2283 34.0005 25.3543 36.0422 25.17H36.0515ZM35.2582 24.3137C35.5524 24.2345 35.8623 24.2345 36.1565 24.3137C36.3595 24.3953 36.1215 24.4583 35.6268 24.4513C35.1322 24.4443 34.9572 24.4 35.2488 24.3137H35.2582ZM32.7125 19.0567C33.0541 19.4087 33.3138 19.8317 33.4732 20.2957L33.5222 20.3423H33.4848C33.6242 20.7474 33.6201 21.188 33.4731 21.5904C33.3261 21.9927 33.0452 22.3322 32.6775 22.552C31.8678 23.154 31.4502 23.1843 22.6442 23.252C15.2335 23.3033 13.2385 23.2333 12.2748 22.8833C10.0208 22.062 9.77351 20.8977 11.4675 19.0823C12.2385 18.159 13.3393 17.573 14.5358 17.449C19.8348 16.5406 25.256 16.6197 30.5262 17.6823C31.3523 17.9634 32.1011 18.4341 32.7125 19.0567ZM33.6668 13.5967C33.3214 13.9915 32.9297 14.3432 32.5002 14.6443C32.4185 14.6443 32.8058 14.1777 33.3658 13.5967C33.7112 13.2019 34.103 12.8501 34.5325 12.549C34.6188 12.549 34.2292 13.0203 33.6668 13.5967ZM36.3992 10.827C36.2261 11.0805 35.9705 11.266 35.6758 11.352C35.5032 11.352 35.4192 11.3123 35.4868 11.2657L36.2102 10.743C36.7702 10.337 36.7842 10.3417 36.4038 10.827H36.3992ZM3.76985 12.2667C3.09661 12.6611 2.47037 13.1308 1.90318 13.6667C1.54618 14.1053 1.56485 14.1333 2.04551 13.9607C2.5426 13.8199 3.05723 13.7508 3.57385 13.7553C4.47218 13.7553 4.54685 13.683 4.45351 12.9317C4.36018 12.1803 4.36485 12.1523 4.57951 12.8337C4.67158 13.1946 4.901 13.5052 5.21885 13.6993C5.50585 13.795 5.57351 13.6807 5.43585 13.3213C5.30752 12.9223 5.24064 12.5061 5.23751 12.087V11.3567L3.76985 12.2667ZM10.9868 3.23434C15.9172 2.51567 32.1572 2.67667 34.5045 3.46767C34.8032 3.57034 34.7168 3.41867 34.2992 3.10601C33.3892 2.43167 27.6468 1.80867 22.1472 1.79234C18.0009 1.66377 13.8558 2.0851 9.82018 3.04534C9.46318 3.4 9.63351 3.43034 10.9868 3.23434ZM30.9998 17.9367H27.1918C23.6545 17.9367 23.3325 17.9833 22.6652 18.6087L21.9465 19.283L21.4005 18.6087C20.8848 17.974 20.6375 17.9367 16.9322 17.9367H13.0098L11.9552 18.9097C10.5552 20.2047 10.3685 21.2827 11.4115 22.104C11.7156 22.4231 12.1204 22.6277 12.5577 22.6834C12.995 22.7391 13.4381 22.6424 13.8125 22.4097C19.3033 21.9538 24.8231 21.9678 30.3115 22.4517C30.7433 22.6378 31.2211 22.6899 31.6829 22.6013C32.1447 22.5127 32.5692 22.2874 32.9015 21.9547C33.7322 21.1263 33.4545 20.6807 31.9495 20.424C30.2158 20.1277 14.3538 20.0997 12.2702 20.389C11.0078 20.564 10.8912 20.543 11.5212 20.2513C18.2973 19.8106 25.0933 19.7638 31.8748 20.1113L33.4848 20.3447V20.305L32.2738 19.1383L30.9998 17.9367Z" fill="#FF573B"/>
</g>
</g>
</svg>
