<svg width="52" height="34" viewBox="0 0 52 34" fill="none" xmlns="http://www.w3.org/2000/svg">
<mask id="mask0_61_169" style="mask-type:luminance" maskUnits="userSpaceOnUse" x="1" y="1" width="50" height="32">
<path d="M51 1H1V33H51V1Z" fill="white"/>
</mask>
<g mask="url(#mask0_61_169)">
<mask id="mask1_61_169" style="mask-type:luminance" maskUnits="userSpaceOnUse" x="1" y="1" width="50" height="32">
<path d="M51 1H1V33H51V1Z" fill="white"/>
</mask>
<g mask="url(#mask1_61_169)">
<path d="M46.4545 23.8571V14.7143H5.54545V23.8571H1V28.4286H3.27273C3.27273 29.641 3.75162 30.8038 4.60406 31.6611C5.4565 32.5184 6.61265 33 7.81818 33C9.02371 33 10.1799 32.5184 11.0323 31.6611C11.8847 30.8038 12.3636 29.641 12.3636 28.4286H39.6364C39.6364 29.641 40.1153 30.8038 40.9677 31.6611C41.8201 32.5184 42.9763 33 44.1818 33C45.3873 33 46.5435 32.5184 47.3959 31.6611C48.2484 30.8038 48.7273 29.641 48.7273 28.4286H51V23.8571H46.4545ZM35.0909 21.5714H16.9091V19.2857H35.0909V21.5714ZM46.4545 1H5.54545V12.4286H46.4545V1ZM35.0909 7.85714H16.9091V5.57143H35.0909V7.85714Z" fill="#FF573B"/>
</g>
</g>
</svg>
