<svg width="44" height="32" viewBox="0 0 44 32" fill="none" xmlns="http://www.w3.org/2000/svg">
<mask id="mask0_61_208" style="mask-type:luminance" maskUnits="userSpaceOnUse" x="1" y="1" width="42" height="30">
<path d="M43 1H1V31H43V1Z" fill="white"/>
</mask>
<g mask="url(#mask0_61_208)">
<mask id="mask1_61_208" style="mask-type:luminance" maskUnits="userSpaceOnUse" x="1" y="1" width="42" height="30">
<path d="M43 1H1V31H43V1Z" fill="white"/>
</mask>
<g mask="url(#mask1_61_208)">
<path d="M21.9997 1.33325C25.8896 1.33325 29.6201 2.87848 32.3706 5.62902C35.1212 8.37955 36.6664 12.1101 36.6664 15.9999C36.6664 19.8897 35.1212 23.6203 32.3706 26.3708C29.6201 29.1213 25.8896 30.6666 21.9997 30.6666C18.1099 30.6666 14.3794 29.1213 11.6288 26.3708C8.87827 23.6203 7.33303 19.8897 7.33303 15.9999C7.33303 12.1101 8.87827 8.37955 11.6288 5.62902C14.3794 2.87848 18.1099 1.33325 21.9997 1.33325ZM8.43303 3.53325C8.82173 3.82526 9.07853 4.2597 9.14695 4.74103C9.21537 5.22236 9.0898 5.71116 8.79787 6.09991C6.65121 8.95348 5.49332 12.429 5.4997 15.9999C5.4997 19.7161 6.72803 23.1407 8.79787 25.8999C9.0896 26.2889 9.21487 26.7778 9.14611 27.2592C9.07734 27.7405 8.82018 28.1748 8.4312 28.4666C8.04222 28.7583 7.55327 28.8836 7.07193 28.8148C6.59058 28.746 6.15627 28.4889 5.86453 28.0999C3.24187 24.6116 1.82666 20.3641 1.83303 15.9999C1.83303 11.4624 3.33453 7.26958 5.86637 3.89992C6.1581 3.51093 6.59242 3.25377 7.07376 3.18501C7.5551 3.11624 8.04405 3.24151 8.43303 3.53325ZM38.1331 3.89992C40.7564 7.38794 42.1722 11.6355 42.1664 15.9999C42.1664 20.5374 40.6649 24.7302 38.1331 28.0999C37.9915 28.3 37.8113 28.4698 37.6031 28.599C37.3948 28.7283 37.1627 28.8145 36.9206 28.8525C36.6784 28.8905 36.4311 28.8796 36.1932 28.8204C35.9554 28.7612 35.7318 28.6548 35.5358 28.5077C35.3397 28.3606 35.1752 28.1756 35.0518 27.9638C34.9285 27.7519 34.8489 27.5175 34.8177 27.2744C34.7866 27.0313 34.8045 26.7844 34.8704 26.5483C34.9364 26.3122 35.049 26.0917 35.2016 25.8999C37.3482 23.0463 38.5061 19.5707 38.4997 15.9999C38.4997 12.2837 37.2714 8.85908 35.2016 6.09991C34.9098 5.71093 34.7846 5.22199 34.8533 4.74064C34.9221 4.2593 35.1793 3.82499 35.5682 3.53325C35.9572 3.24151 36.4462 3.11624 36.9275 3.18501C37.4089 3.25377 37.8432 3.51093 38.1349 3.89992H38.1331ZM21.9997 4.99991C19.0824 4.99991 16.2845 6.15884 14.2216 8.22174C12.1587 10.2846 10.9997 13.0825 10.9997 15.9999C10.9997 18.9173 12.1587 21.7152 14.2216 23.7781C16.2845 25.841 19.0824 26.9999 21.9997 26.9999C24.9171 26.9999 27.715 25.841 29.7779 23.7781C31.8408 21.7152 32.9997 18.9173 32.9997 15.9999C32.9997 13.0825 31.8408 10.2846 29.7779 8.22174C27.715 6.15884 24.9171 4.99991 21.9997 4.99991ZM25.6664 8.66658C26.1526 8.66658 26.619 8.85974 26.9628 9.20355C27.3066 9.54737 27.4997 10.0137 27.4997 10.4999V21.4999C27.4997 21.9861 27.3066 22.4524 26.9628 22.7963C26.619 23.1401 26.1526 23.3332 25.6664 23.3332C25.1802 23.3332 24.7139 23.1401 24.37 22.7963C24.0262 22.4524 23.8331 21.9861 23.8331 21.4999V17.8332H20.1664V21.4999C20.1664 21.9861 19.9733 22.4524 19.6294 22.7963C19.2856 23.1401 18.8193 23.3332 18.3331 23.3332C17.8468 23.3332 17.3805 23.1401 17.0367 22.7963C16.6929 22.4524 16.4997 21.9861 16.4997 21.4999V10.4999C16.4997 10.0137 16.6929 9.54737 17.0367 9.20355C17.3805 8.85974 17.8468 8.66658 18.3331 8.66658C18.8193 8.66658 19.2856 8.85974 19.6294 9.20355C19.9733 9.54737 20.1664 10.0137 20.1664 10.4999V14.1666H23.8331V10.4999C23.8331 10.0137 24.0262 9.54737 24.37 9.20355C24.7139 8.85974 25.1802 8.66658 25.6664 8.66658Z" fill="#FF573B"/>
</g>
</g>
</svg>
