<svg width="42" height="33" viewBox="0 0 42 33" fill="none" xmlns="http://www.w3.org/2000/svg">
<mask id="mask0_61_189" style="mask-type:luminance" maskUnits="userSpaceOnUse" x="1" y="1" width="40" height="31">
<path d="M41 1H1V32H41V1Z" fill="white"/>
</mask>
<g mask="url(#mask0_61_189)">
<mask id="mask1_61_189" style="mask-type:luminance" maskUnits="userSpaceOnUse" x="1" y="1" width="40" height="31">
<path d="M41 1H1V32H41V1Z" fill="white"/>
</mask>
<g mask="url(#mask1_61_189)">
<path d="M17.333 15.7778H20.9997V18.2222H17.333V15.7778Z" fill="#FF573B"/>
<path d="M31.3277 12.3189C29.16 8.77171 26.2029 5.77277 22.6866 3.55551C21.0621 2.52596 19.2104 1.90972 17.2929 1.76058C15.3755 1.61145 13.4507 1.93396 11.6866 2.69995C10.1435 3.42779 8.80082 4.5203 7.77444 5.88312C6.74806 7.24595 6.06885 8.83812 5.79545 10.5222C5.69767 11.0967 5.62434 11.6467 5.551 12.1844C4.40669 12.3699 3.36552 12.956 2.61331 13.838C1.8611 14.7201 1.44679 15.8408 1.44434 17V24.4922C1.44434 25.1405 1.70188 25.7623 2.1603 26.2207C2.61872 26.6791 3.24048 26.9367 3.88878 26.9367V17C3.88878 16.3517 4.14632 15.7299 4.60474 15.2715C5.06317 14.8131 5.68492 14.5555 6.33323 14.5555H29.2255C31.5811 14.5588 33.8393 15.496 35.5049 17.1616C37.1706 18.8273 38.1078 21.0855 38.111 23.4411V24.3333H35.6666C35.1504 23.0746 34.1888 22.0499 32.9653 21.455C31.7418 20.86 30.3421 20.7363 29.0333 21.1075C27.7244 21.4787 26.598 22.3188 25.8691 23.4675C25.1401 24.6162 24.8596 25.9931 25.0811 27.3354C25.3026 28.6778 26.0106 29.8915 27.0699 30.7452C28.1292 31.5988 29.4658 32.0326 30.8245 31.9636C32.1833 31.8947 33.4691 31.3279 34.4365 30.3714C35.404 29.4149 35.9855 28.1356 36.0699 26.7778H38.111C38.7593 26.7778 39.3811 26.5202 39.8395 26.0618C40.2979 25.6034 40.5555 24.9816 40.5555 24.3333V23.4411C40.5505 20.8035 39.6265 18.25 37.9423 16.2201C36.2581 14.1901 33.9191 12.8106 31.3277 12.3189ZM12.4444 12.1111H7.46989C7.46989 11.7322 7.57989 11.3411 7.65323 10.8889C7.86439 9.54618 8.41546 8.27984 9.25405 7.21022C10.0926 6.14059 11.1909 5.30323 12.4444 4.77773V12.1111ZM14.8888 12.1111V4.2644C17.1706 3.96808 19.4848 4.46891 21.4399 5.68218C24.1089 7.34462 26.4125 9.53178 28.211 12.1111H14.8888ZM30.5332 29.6867C29.9289 29.6867 29.3382 29.5075 28.8357 29.1717C28.3332 28.836 27.9415 28.3587 27.7103 27.8004C27.479 27.2421 27.4185 26.6277 27.5364 26.035C27.6543 25.4423 27.9453 24.8978 28.3726 24.4705C28.8 24.0432 29.3444 23.7522 29.9371 23.6343C30.5299 23.5164 31.1442 23.5769 31.7026 23.8081C32.2609 24.0394 32.7381 24.431 33.0738 24.9335C33.4096 25.436 33.5888 26.0268 33.5888 26.6311C33.5888 27.4415 33.2669 28.2187 32.6938 28.7917C32.1208 29.3647 31.3436 29.6867 30.5332 29.6867Z" fill="#FF573B"/>
<path d="M16.3185 24.3333C15.8023 23.0746 14.8407 22.05 13.6172 21.455C12.3938 20.86 10.994 20.7363 9.6852 21.1075C8.37634 21.4787 7.24997 22.3188 6.52102 23.4675C5.79207 24.6162 5.51157 25.9931 5.73305 27.3354C5.95454 28.6778 6.6625 29.8916 7.72184 30.7452C8.78118 31.5988 10.1177 32.0326 11.4764 31.9636C12.8352 31.8947 14.121 31.3279 15.0884 30.3714C16.0559 29.4149 16.6374 28.1356 16.7218 26.7778H23.1996V26.4722C23.1754 25.7511 23.2578 25.0304 23.444 24.3333H16.3185ZM11.2218 29.6867C10.6175 29.6867 10.0268 29.5075 9.52427 29.1717C9.02179 28.836 8.63015 28.3588 8.39888 27.8004C8.16761 27.2421 8.1071 26.6277 8.225 26.035C8.3429 25.4423 8.63391 24.8978 9.06124 24.4705C9.48857 24.0432 10.033 23.7522 10.6257 23.6343C11.2184 23.5164 11.8328 23.5769 12.3911 23.8081C12.9495 24.0394 13.4267 24.4311 13.7624 24.9335C14.0982 25.436 14.2774 26.0268 14.2774 26.6311C14.2774 27.4415 13.9554 28.2187 13.3824 28.7917C12.8094 29.3647 12.0322 29.6867 11.2218 29.6867Z" fill="#FF573B"/>
</g>
</g>
</svg>
