<svg width="36" height="36" viewBox="0 0 36 36" fill="none" xmlns="http://www.w3.org/2000/svg">
<mask id="mask0_61_47" style="mask-type:luminance" maskUnits="userSpaceOnUse" x="1" y="1" width="34" height="34">
<path d="M35 1H1V35H35V1Z" fill="white"/>
</mask>
<g mask="url(#mask0_61_47)">
<mask id="mask1_61_47" style="mask-type:luminance" maskUnits="userSpaceOnUse" x="1" y="1" width="34" height="34">
<path d="M35 1H1V35H35V1Z" fill="white"/>
</mask>
<g mask="url(#mask1_61_47)">
<path d="M15.5166 4.10833C15.8293 3.75915 16.212 3.47984 16.6399 3.28861C17.0678 3.09738 17.5313 2.99854 17.9999 2.99854C18.4686 2.99854 18.9321 3.09738 19.36 3.28861C19.7879 3.47984 20.1706 3.75915 20.4833 4.10833L21.6499 5.41166C21.9834 5.78415 22.3963 6.07687 22.8582 6.26815C23.3201 6.45943 23.8191 6.54436 24.3183 6.51666L26.0683 6.41999C26.5363 6.39419 27.0046 6.46741 27.4425 6.63486C27.8803 6.80232 28.2779 7.06025 28.6093 7.39181C28.9407 7.72337 29.1985 8.12109 29.3657 8.55903C29.533 8.99696 29.606 9.46526 29.5799 9.93333L29.4833 11.6817C29.4558 12.1806 29.5409 12.6792 29.7322 13.1408C29.9234 13.6024 30.216 14.0151 30.5883 14.3483L31.8916 15.515C32.2411 15.8277 32.5206 16.2105 32.712 16.6386C32.9034 17.0666 33.0023 17.5303 33.0023 17.9992C33.0023 18.4681 32.9034 18.9317 32.712 19.3598C32.5206 19.7878 32.2411 20.1707 31.8916 20.4833L30.5883 21.65C30.2158 21.9834 29.9231 22.3964 29.7318 22.8583C29.5405 23.3202 29.4556 23.8192 29.4833 24.3183L29.5799 26.0683C29.6057 26.5364 29.5325 27.0047 29.3651 27.4425C29.1976 27.8804 28.9397 28.278 28.6081 28.6094C28.2766 28.9408 27.8788 29.1985 27.4409 29.3658C27.003 29.533 26.5347 29.606 26.0666 29.58L24.3183 29.4833C23.8194 29.4559 23.3207 29.5409 22.8591 29.7322C22.3975 29.9235 21.9849 30.2161 21.6516 30.5883L20.4849 31.8917C20.1723 32.2411 19.7894 32.5207 19.3614 32.7121C18.9333 32.9035 18.4697 33.0024 18.0008 33.0024C17.5319 33.0024 17.0682 32.9035 16.6402 32.7121C16.2121 32.5207 15.8293 32.2411 15.5166 31.8917L14.3499 30.5883C14.0165 30.2158 13.6036 29.9231 13.1417 29.7318C12.6798 29.5406 12.1808 29.4556 11.6816 29.4833L9.93161 29.58C9.46353 29.6058 8.99528 29.5326 8.55742 29.3651C8.11957 29.1977 7.72196 28.9397 7.39055 28.6082C7.05915 28.2766 6.80141 27.8789 6.63416 27.441C6.46691 27.003 6.39392 26.5347 6.41994 26.0667L6.51661 24.3183C6.54406 23.8194 6.459 23.3208 6.26773 22.8592C6.07646 22.3976 5.78388 21.9849 5.41161 21.6517L4.10827 20.485C3.75883 20.1723 3.47927 19.7895 3.28788 19.3614C3.09649 18.9334 2.99756 18.4697 2.99756 18.0008C2.99756 17.5319 3.09649 17.0683 3.28788 16.6403C3.47927 16.2122 3.75883 15.8293 4.10827 15.5167L5.41161 14.35C5.7841 14.0166 6.07682 13.6036 6.2681 13.1417C6.45938 12.6798 6.54431 12.1808 6.51661 11.6817L6.41994 9.93166C6.39438 9.46372 6.46778 8.99564 6.63534 8.55798C6.80291 8.12033 7.06088 7.72293 7.39241 7.39172C7.72394 7.0605 8.12159 6.80291 8.55941 6.63576C8.99722 6.46861 9.46536 6.39566 9.93327 6.42166L11.6816 6.51833C12.1805 6.54577 12.6792 6.46072 13.1408 6.26945C13.6023 6.07818 14.015 5.78559 14.3483 5.41333L15.5166 4.10833Z" stroke="#FF573B" stroke-width="2"/>
<path d="M13.8333 13.8333H13.8499V13.85H13.8333V13.8333ZM22.1666 22.1667H22.1833V22.1833H22.1666V22.1667Z" stroke="#FF573B" stroke-width="3" stroke-linejoin="round"/>
<path d="M23 13L13 23" stroke="#FF573B" stroke-width="2" stroke-linecap="round" stroke-linejoin="round"/>
</g>
</g>
</svg>
