<svg width="40" height="34" viewBox="0 0 40 34" fill="none" xmlns="http://www.w3.org/2000/svg">
<mask id="mask0_61_4" style="mask-type:luminance" maskUnits="userSpaceOnUse" x="1" y="1" width="38" height="32">
<path d="M39 1H1V33H39V1Z" fill="white"/>
</mask>
<g mask="url(#mask0_61_4)">
<mask id="mask1_61_4" style="mask-type:luminance" maskUnits="userSpaceOnUse" x="1" y="1" width="38" height="32">
<path d="M39 1H1V33H39V1Z" fill="white"/>
</mask>
<g mask="url(#mask1_61_4)">
<path d="M36.4998 6.83325C36.9671 6.83377 37.4165 7.0127 37.7563 7.33348C38.0961 7.65426 38.3006 8.09267 38.328 8.55915C38.3553 9.02562 38.2036 9.48495 37.9037 9.84328C37.6037 10.2016 37.1783 10.4319 36.7143 10.4871L36.4998 10.4999V28.8332C36.9671 28.8337 37.4165 29.0127 37.7563 29.3334C38.0961 29.6542 38.3006 30.0926 38.328 30.5591C38.3553 31.0256 38.2036 31.4849 37.9037 31.8433C37.6037 32.2016 37.1783 32.4319 36.7143 32.4871L36.4998 32.4999H3.49976C3.03248 32.4994 2.58304 32.3204 2.24325 31.9997C1.90347 31.6789 1.699 31.2405 1.67161 30.774C1.64423 30.3075 1.796 29.8482 2.09592 29.4899C2.39583 29.1315 2.82125 28.9013 3.28526 28.8461L3.49976 28.8332V10.4999C3.03248 10.4994 2.58304 10.3205 2.24325 9.99969C1.90347 9.67892 1.699 9.24051 1.67161 8.77403C1.64423 8.30756 1.796 7.84822 2.09592 7.48989C2.39583 7.13156 2.82125 6.90127 3.28526 6.84608L3.49976 6.83325H36.4998ZM32.8331 10.4999H7.16643V28.8332H10.8331V15.9999C10.8331 15.5137 11.0263 15.0473 11.3701 14.7035C11.7139 14.3597 12.1802 14.1666 12.6665 14.1666C13.1527 14.1666 13.619 14.3597 13.9628 14.7035C14.3066 15.0473 14.4998 15.5137 14.4998 15.9999V28.8332H18.1665V15.9999C18.1665 15.5137 18.3596 15.0473 18.7034 14.7035C19.0473 14.3597 19.5136 14.1666 19.9998 14.1666C20.486 14.1666 20.9523 14.3597 21.2962 14.7035C21.64 15.0473 21.8331 15.5137 21.8331 15.9999V28.8332H25.4998V15.9999C25.4998 15.5137 25.693 15.0473 26.0368 14.7035C26.3806 14.3597 26.8469 14.1666 27.3331 14.1666C27.8194 14.1666 28.2857 14.3597 28.6295 14.7035C28.9733 15.0473 29.1665 15.5137 29.1665 15.9999V28.8332H32.8331V10.4999ZM30.9998 1.33325C31.486 1.33325 31.9524 1.52641 32.2962 1.87022C32.64 2.21404 32.8331 2.68036 32.8331 3.16659C32.8331 3.65282 32.64 4.11914 32.2962 4.46295C31.9524 4.80677 31.486 4.99991 30.9998 4.99991H8.99976C8.51353 4.99991 8.04722 4.80677 7.7034 4.46295C7.35958 4.11914 7.16643 3.65282 7.16643 3.16659C7.16643 2.68036 7.35958 2.21404 7.7034 1.87022C8.04722 1.52641 8.51353 1.33325 8.99976 1.33325H30.9998Z" fill="#FF573B"/>
</g>
</g>
</svg>
