<svg width="34" height="34" viewBox="0 0 34 34" fill="none" xmlns="http://www.w3.org/2000/svg">
<mask id="mask0_61_37" style="mask-type:luminance" maskUnits="userSpaceOnUse" x="1" y="1" width="32" height="32">
<path d="M33 1H1V33H33V1Z" fill="white"/>
</mask>
<g mask="url(#mask0_61_37)">
<mask id="mask1_61_37" style="mask-type:luminance" maskUnits="userSpaceOnUse" x="1" y="1" width="32" height="32">
<path d="M33 1H1V33H33V1Z" fill="white"/>
</mask>
<g mask="url(#mask1_61_37)">
<path fill-rule="evenodd" clip-rule="evenodd" d="M15.9205 3.9652C15.0507 4.07995 13.9768 4.32645 12.4497 4.6792L10.7086 5.08153C9.41942 5.37903 8.52975 5.58587 7.85117 5.8182C7.19525 6.04345 6.82408 6.26445 6.545 6.54495C6.2645 6.82403 6.0435 7.1952 5.81825 7.85112C5.58592 8.5297 5.37908 9.41795 5.08158 10.7086L4.67925 12.4482C4.3265 13.9768 4.08 15.0507 3.96525 15.9205C3.85192 16.7677 3.87883 17.3414 4.029 17.8627C4.17775 18.3841 4.45967 18.8842 5.00367 19.5429C5.56325 20.2201 6.341 21.0007 7.45025 22.1099L10.0427 24.7024C11.968 26.6277 13.3379 27.9947 14.5166 28.8929C15.6698 29.7741 16.5141 30.1042 17.3712 30.1042C18.2297 30.1042 19.0726 29.7741 20.2272 28.8929C21.4044 27.9947 22.7758 26.6262 24.701 24.701C26.6277 22.7743 27.9948 21.4044 28.8943 20.2272C29.7727 19.0726 30.1042 18.2297 30.1042 17.3712C30.1042 16.5141 29.7741 15.6712 28.8929 14.5166C27.9948 13.3379 26.6263 11.9666 24.701 10.0413L22.1085 7.44878C21.0007 6.34095 20.2201 5.5632 19.5443 5.00362C18.8842 4.45962 18.3841 4.1777 17.8628 4.02895C17.3414 3.87878 16.7677 3.85328 15.9219 3.9652M15.6443 1.85862C16.66 1.72403 17.5511 1.72828 18.4493 1.98612C19.3488 2.24395 20.1068 2.71287 20.8973 3.36453C21.6623 3.99637 22.5123 4.84637 23.5762 5.91028L26.2622 8.59628C28.118 10.4521 29.5885 11.9227 30.583 13.2288C31.6087 14.5704 32.2306 15.8624 32.2306 17.3712C32.2306 18.8813 31.6087 20.1733 30.5844 21.5149C29.5885 22.8211 28.1194 24.2916 26.2622 26.1474L26.1488 26.2607C24.293 28.1166 22.8225 29.5871 21.5163 30.5816C20.1748 31.6072 18.8813 32.2292 17.3726 32.2292C15.8638 32.2292 14.5718 31.6072 13.2288 30.583C11.9241 29.5871 10.4536 28.118 8.59633 26.2607L5.91175 23.5733C4.84925 22.5108 3.99783 21.6594 3.366 20.8958C2.71433 20.1039 2.24542 19.346 1.98759 18.4478C1.72975 17.5482 1.7255 16.6572 1.86009 15.6414C1.989 14.6582 2.261 13.4852 2.59817 12.0204L3.02317 10.1745C3.3065 8.95187 3.536 7.95453 3.80942 7.15978C4.09558 6.3282 4.454 5.62978 5.04333 5.04045C5.63267 4.45112 6.3325 4.09128 7.16267 3.80795C7.95742 3.53312 8.95475 3.30362 10.1773 3.0217L12.0233 2.5967C13.4881 2.2567 14.6611 1.98753 15.6443 1.8572M13.4442 11.3262C13.112 10.9941 12.6616 10.8075 12.1918 10.8075C11.7221 10.8075 11.2716 10.9941 10.9395 11.3262C10.6074 11.6584 10.4208 12.1089 10.4208 12.5786C10.4208 13.0483 10.6074 13.4988 10.9395 13.8309C11.104 13.9954 11.2992 14.1258 11.5141 14.2148C11.729 14.3038 11.9593 14.3496 12.1918 14.3496C12.4244 14.3496 12.6547 14.3038 12.8696 14.2148C13.0845 14.1258 13.2797 13.9954 13.4442 13.8309C13.6086 13.6665 13.7391 13.4712 13.8281 13.2563C13.9171 13.0415 13.9629 12.8112 13.9629 12.5786C13.9629 12.346 13.9171 12.1157 13.8281 11.9008C13.7391 11.6859 13.6086 11.4907 13.4442 11.3262ZM9.43642 9.82453C10.167 9.09375 11.158 8.68313 12.1913 8.68299C13.2247 8.68286 14.2158 9.09323 14.9465 9.82382C15.6773 10.5545 16.0879 11.5454 16.0881 12.5788C16.0882 13.6121 15.6778 14.6032 14.9473 15.334C14.2165 16.0648 13.2253 16.4753 12.1918 16.4753C11.1584 16.4753 10.1672 16.0648 9.43642 15.334C8.70564 14.6032 8.29509 13.6121 8.29509 12.5786C8.29509 11.5451 8.70564 10.5554 9.43642 9.82453ZM18.4039 17.1502C18.0764 17.1627 17.7669 17.3036 17.5426 17.5426C16.9929 18.0922 17.1374 18.6405 17.2918 18.7949C17.4477 18.9493 17.9959 19.0924 18.5442 18.5442C19.6548 17.4335 21.573 17.0652 22.8012 18.2934C23.7547 19.2468 23.7476 20.6153 23.1767 21.6991C23.3171 21.9033 23.3818 22.1501 23.3594 22.397C23.3371 22.6438 23.2292 22.875 23.0544 23.0507C22.8795 23.2264 22.6488 23.3354 22.4021 23.3589C22.1554 23.3824 21.9082 23.319 21.7033 23.1795C21.0675 23.5281 20.3302 23.6443 19.618 23.5082C19.4813 23.4801 19.3514 23.4253 19.2358 23.347C19.1202 23.2688 19.0212 23.1685 18.9444 23.0519C18.8676 22.9354 18.8144 22.8048 18.7881 22.6678C18.7617 22.5307 18.7626 22.3897 18.7907 22.253C18.8188 22.1163 18.8735 21.9864 18.9518 21.8708C19.0301 21.7552 19.1304 21.6562 19.2469 21.5794C19.3635 21.5026 19.494 21.4494 19.6311 21.4231C19.7682 21.3967 19.9091 21.3976 20.0458 21.4257C20.2966 21.4781 20.7018 21.3973 21.0488 21.0488C21.5971 20.4992 21.454 19.9509 21.2996 19.7965C21.1438 19.6421 20.5955 19.499 20.0473 20.0472C18.9366 21.1579 17.0184 21.5262 15.7902 20.298C14.8368 19.3446 14.8438 17.9761 15.4147 16.8923C15.2743 16.6881 15.2097 16.4413 15.232 16.1944C15.2543 15.9476 15.3622 15.7164 15.5371 15.5407C15.7119 15.3651 15.9426 15.256 16.1893 15.2325C16.436 15.209 16.6832 15.2724 16.8881 15.4119C17.3697 15.1555 17.8982 15.0195 18.4252 15.0252C18.707 15.0278 18.9762 15.1423 19.1736 15.3434C19.371 15.5445 19.4804 15.8158 19.4777 16.0976C19.4751 16.3794 19.3607 16.6486 19.1595 16.846C18.9584 17.0434 18.6857 17.1528 18.4039 17.1502Z" fill="#FF573B"/>
</g>
</g>
</svg>
