<svg width="34" height="32" viewBox="0 0 34 32" fill="none" xmlns="http://www.w3.org/2000/svg">
<mask id="mask0_61_59" style="mask-type:luminance" maskUnits="userSpaceOnUse" x="1" y="1" width="32" height="30">
<path d="M33 1H1V31H33V1Z" fill="white"/>
</mask>
<g mask="url(#mask0_61_59)">
<path d="M19.733 21.2661C19.733 21.696 19.3645 22.0645 18.9346 22.0645H6.49856C6.06867 22.0645 5.7002 21.696 5.7002 21.2661C5.7002 20.8362 6.06867 20.4678 6.49856 20.4678H18.9653C19.3952 20.4678 19.733 20.8362 19.733 21.2661ZM14.5129 24.8895H6.49856C6.06867 24.8895 5.7002 25.2579 5.7002 25.6878C5.7002 26.1177 6.06867 26.4862 6.49856 26.4862H14.5436C14.9735 26.4862 15.342 26.1177 15.342 25.6878C15.3113 25.2272 14.9735 24.8895 14.5129 24.8895ZM10.1526 15.4319H11.6879C11.8107 15.4319 11.9029 15.5241 11.9029 15.6469V17.1208C11.9029 17.5507 12.2099 17.9191 12.6091 17.9498C13.0697 17.9806 13.4689 17.6121 13.4689 17.1515V15.6162C13.4689 15.4933 13.561 15.4012 13.6838 15.4012H15.2191C15.6797 15.4012 16.0482 15.002 16.0175 14.5415C15.9868 14.1116 15.5876 13.8352 15.1884 13.8352H13.7145C13.5917 13.8352 13.4996 13.7431 13.4996 13.6203V12.1464C13.4996 11.7165 13.1925 11.348 12.7933 11.3173C12.3327 11.2866 11.9336 11.6551 11.9336 12.1157V13.651C11.9336 13.7738 11.8414 13.8659 11.7186 13.8659H10.2447C9.81483 13.8659 9.44636 14.173 9.41565 14.5722C9.32353 15.0328 9.69201 15.4319 10.1526 15.4319ZM15.8026 1L23.7555 9.3828V29.1883C23.7555 30.1709 22.9571 31 21.9438 31H3.45864C2.47604 31 1.64697 30.2016 1.64697 29.1883V2.78096C1.64697 1.79836 2.44534 1 3.45864 1H15.8026ZM16.2324 8.92221H21.2069L16.2324 3.67144V8.92221ZM22.2202 29.1883V10.4575H15.9561C15.2498 10.4575 14.6971 9.90481 14.6971 9.19857V2.53531H3.45864C3.30511 2.53531 3.18228 2.65814 3.18228 2.81167V29.219C3.18228 29.3726 3.30511 29.4954 3.45864 29.4954H21.9438C22.0973 29.4647 22.2202 29.3419 22.2202 29.1883ZM32.3532 18.7789V27.2538C32.3532 29.3419 30.6644 31.0307 28.5763 31.0307C26.4883 31.0307 24.7995 29.3419 24.7995 27.2538V18.7789C24.7995 16.6909 26.4883 15.002 28.5763 15.002C30.6644 15.002 32.3532 16.6909 32.3532 18.7789ZM26.3655 18.7789V22.2487H30.8179V18.7789C30.8179 17.5507 29.8046 16.5374 28.5763 16.5374C27.3481 16.5374 26.3655 17.5507 26.3655 18.7789ZM30.8179 27.2538V23.784H26.3655V27.2538C26.3655 28.4821 27.3788 29.4954 28.6071 29.4954C29.8353 29.4647 30.8179 28.4821 30.8179 27.2538Z" fill="#FF573B"/>
</g>
</svg>
