<svg width="36" height="32" viewBox="0 0 36 32" fill="none" xmlns="http://www.w3.org/2000/svg">
<mask id="mask0_61_31" style="mask-type:luminance" maskUnits="userSpaceOnUse" x="1" y="1" width="34" height="30">
<path d="M35 1H1V31H35V1Z" fill="white"/>
</mask>
<g mask="url(#mask0_61_31)">
<path d="M34.8198 7.61171C34.2181 4.78647 32.6535 2.66026 29.8251 1.55346C27.6287 0.679674 25.4322 0.883558 23.2358 1.66997C21.4004 2.33987 19.8057 3.38841 18.3614 4.66997C18.1508 4.84472 18.0304 5.01948 17.6995 4.72822C15.5933 2.74764 13.1561 1.40783 10.2074 1.08744C8.34195 0.912684 6.53664 1.20395 4.91186 2.16511C2.05345 3.88356 0.518942 7.34958 1.12071 10.9612C1.51186 13.2622 2.59505 15.301 4.06938 17.1069C5.42337 18.7671 11.9225 25.1748 13.6074 26.8933C14.8712 28.1457 16.1048 29.4272 17.3685 30.6797C17.7897 31.1166 18.1207 31.1166 18.542 30.6797C18.7827 30.4467 25.9738 23.1942 29.3136 19.8156C30.3667 18.7379 31.48 17.6894 32.3526 16.4952C33.9172 14.369 34.9101 12.0389 34.9101 9.38841C35.0004 8.77676 34.9402 8.19424 34.8198 7.61171ZM33.7066 9.09715C33.7066 11.4272 32.9844 13.2913 31.9012 15.0098C31.2995 15.9418 30.5773 16.8156 29.795 17.6311C25.9136 21.5049 22.0623 25.4078 18.2411 29.2816C18.0605 29.4564 17.9703 29.4564 17.7897 29.2816C15.6234 27.0972 7.55965 18.9709 5.72425 17.0486C4.09947 15.3302 2.89593 13.3205 2.44461 10.9903C1.96319 8.42725 2.41452 6.0389 4.40036 4.14569C5.96496 2.66026 7.89062 2.04861 10.0871 2.28162C12.4942 2.54375 14.48 3.65055 16.2853 5.13599C16.6765 5.45637 17.0375 5.80589 17.3986 6.1554C17.88 6.5923 18.1508 6.5923 18.6021 6.1554C19.8959 4.9321 21.28 3.88356 22.9349 3.12628C24.1384 2.57288 25.4021 2.25249 26.726 2.25249C30.126 2.22336 32.8641 4.43696 33.526 7.64084C33.6464 8.22336 33.7066 8.77676 33.7066 9.09715ZM23.2959 13.5826C22.4835 13.5826 21.6712 13.5535 20.8588 13.5826C20.4977 13.5826 20.4375 13.4661 20.4375 13.1457C20.4676 12.301 20.4375 11.4855 20.4375 10.6408C20.4375 10.1457 20.1968 9.91268 19.6853 9.91268C18.572 9.91268 17.4588 9.91268 16.3154 9.91268C15.8039 9.91268 15.5632 10.1457 15.5632 10.67C15.5632 11.5438 15.5632 12.3884 15.5632 13.2622C15.5632 13.5243 15.4729 13.6117 15.2021 13.6117C14.3597 13.6117 13.5473 13.6117 12.7048 13.6117C12.1331 13.6117 11.8924 13.8447 11.8924 14.369C11.8924 14.9224 11.8924 15.4467 11.8924 16.0001C11.8924 16.5826 11.8924 17.1651 11.8924 17.7185C11.8924 18.2137 12.1331 18.4467 12.6747 18.4467C13.4871 18.4467 14.2995 18.4758 15.1119 18.4467C15.4729 18.4467 15.5331 18.5632 15.5331 18.8836C15.503 19.7282 15.5331 20.5438 15.5331 21.3884C15.5331 21.8836 15.7738 22.1166 16.2853 22.1166C17.3986 22.1166 18.5119 22.1166 19.6552 22.1166C20.1667 22.1166 20.4074 21.8836 20.4074 21.3593C20.4074 20.4855 20.4074 19.6408 20.4074 18.7671C20.4074 18.5049 20.4977 18.4175 20.7685 18.4175C21.611 18.4175 22.4535 18.4175 23.2959 18.4175C23.8074 18.4175 24.0481 18.1845 24.0481 17.6894C24.0481 16.5535 24.0481 15.4175 24.0481 14.2816C24.0782 13.8156 23.8375 13.5826 23.2959 13.5826ZM22.8145 16.8156C22.8145 17.1069 22.7243 17.2234 22.4234 17.1942C21.6712 17.1651 20.9189 17.1942 20.1667 17.1942C19.3844 17.1942 19.1738 17.3981 19.1738 18.1263C19.1738 18.9127 19.1738 19.67 19.1738 20.4564C19.1738 20.7476 19.0835 20.8641 18.7827 20.835C18.2411 20.835 17.7597 20.835 17.2181 20.835C16.9473 20.835 16.857 20.7476 16.857 20.4855C16.857 19.6991 16.857 18.9127 16.857 18.1263C16.857 17.3981 16.6464 17.1942 15.8641 17.1942C15.1119 17.1942 14.3897 17.1942 13.6375 17.1942C13.3066 17.1942 13.2163 17.0777 13.2163 16.7573C13.2163 16.2331 13.2163 15.7088 13.2163 15.1554C13.2163 14.8641 13.3066 14.7476 13.6074 14.7768C14.3597 14.8059 15.1119 14.7768 15.8641 14.7768C16.6464 14.7768 16.857 14.5729 16.857 13.8447C16.857 13.0583 16.857 12.301 16.857 11.5146C16.857 11.2234 16.9473 11.1069 17.2481 11.136C17.8198 11.136 18.3012 11.136 18.8428 11.136C19.0835 11.136 19.1738 11.2234 19.1738 11.4564C19.1738 11.8933 19.1738 12.3302 19.1738 12.7671C19.1738 13.1457 19.1738 13.5243 19.1738 13.903C19.1738 14.602 19.3844 14.8059 20.1066 14.8059C20.8588 14.8059 21.611 14.835 22.3632 14.8059C22.6942 14.8059 22.8145 14.9224 22.7844 15.2428C22.8145 15.7671 22.8145 16.2913 22.8145 16.8156Z" fill="#FF573B"/>
</g>
</svg>
