<svg width="28" height="34" viewBox="0 0 28 34" fill="none" xmlns="http://www.w3.org/2000/svg">
<mask id="mask0_61_107" style="mask-type:luminance" maskUnits="userSpaceOnUse" x="1" y="1" width="26" height="32">
<path d="M27 1H1V33H27V1Z" fill="white"/>
</mask>
<g mask="url(#mask0_61_107)">
<mask id="mask1_61_107" style="mask-type:luminance" maskUnits="userSpaceOnUse" x="1" y="1" width="26" height="32">
<path d="M27 1H1V33H27V1Z" fill="white"/>
</mask>
<g mask="url(#mask1_61_107)">
<path d="M25.375 31.4V28.2001C25.375 26.5027 24.6902 24.8748 23.4712 23.6745C22.2522 22.4743 20.5989 21.8 18.875 21.8H9.125C7.40109 21.8 5.74779 22.4743 4.52881 23.6745C3.30982 24.8748 2.625 26.5027 2.625 28.2001V31.4" stroke="#FF573B" stroke-width="2" stroke-linecap="round" stroke-linejoin="round"/>
<path d="M14 15.4001C17.5899 15.4001 20.5 12.5347 20.5 9.0001C20.5 5.46547 17.5899 2.6001 14 2.6001C10.4102 2.6001 7.5 5.46547 7.5 9.0001C7.5 12.5347 10.4102 15.4001 14 15.4001Z" stroke="#FF573B" stroke-width="2" stroke-linecap="round" stroke-linejoin="round"/>
</g>
</g>
</svg>
