<svg width="40" height="32" viewBox="0 0 40 32" fill="none" xmlns="http://www.w3.org/2000/svg">
<mask id="mask0_61_159" style="mask-type:luminance" maskUnits="userSpaceOnUse" x="1" y="1" width="38" height="30">
<path d="M39 1H1V31H39V1Z" fill="white"/>
</mask>
<g mask="url(#mask0_61_159)">
<mask id="mask1_61_159" style="mask-type:luminance" maskUnits="userSpaceOnUse" x="1" y="1" width="38" height="30">
<path d="M39 1H1V31H39V1Z" fill="white"/>
</mask>
<g mask="url(#mask1_61_159)">
<path d="M25.1332 8.66658L27.3332 10.8666L14.8665 23.3332L12.6665 21.1332L25.1332 8.66658ZM5.33316 1.33325H34.6665C36.7015 1.33325 38.3332 2.96491 38.3332 4.99991V12.3332C37.3607 12.3332 36.4281 12.7195 35.7404 13.4072C35.0528 14.0948 34.6665 15.0274 34.6665 15.9999C34.6665 16.9724 35.0528 17.905 35.7404 18.5926C36.4281 19.2803 37.3607 19.6666 38.3332 19.6666V26.9999C38.3332 29.0349 36.7015 30.6666 34.6665 30.6666H5.33316C4.3607 30.6666 3.42807 30.2803 2.74044 29.5926C2.05281 28.905 1.6665 27.9724 1.6665 26.9999V19.6666C3.7015 19.6666 5.33316 18.0349 5.33316 15.9999C5.33316 15.0274 4.94686 14.0948 4.25922 13.4072C3.57159 12.7195 2.63896 12.3332 1.6665 12.3332V4.99991C1.6665 4.02745 2.05281 3.09482 2.74044 2.40719C3.42807 1.71956 4.3607 1.33325 5.33316 1.33325ZM5.33316 4.99991V9.65658C6.44724 10.299 7.37248 11.2234 8.0158 12.337C8.65911 13.4505 8.99781 14.7139 8.99781 15.9999C8.99781 17.2859 8.65911 18.5493 8.0158 19.6628C7.37248 20.7763 6.44724 21.7008 5.33316 22.3432V26.9999H34.6665V22.3432C33.5524 21.7008 32.6272 20.7763 31.9839 19.6628C31.3405 18.5493 31.0018 17.2859 31.0018 15.9999C31.0018 14.7139 31.3405 13.4505 31.9839 12.337C32.6272 11.2234 33.5524 10.299 34.6665 9.65658V4.99991H5.33316ZM15.4165 8.66658C16.9382 8.66658 18.1665 9.89492 18.1665 11.4166C18.1665 12.9382 16.9382 14.1666 15.4165 14.1666C13.8948 14.1666 12.6665 12.9382 12.6665 11.4166C12.6665 9.89492 13.8948 8.66658 15.4165 8.66658ZM24.5832 17.8332C26.1048 17.8332 27.3332 19.0616 27.3332 20.5832C27.3332 22.1049 26.1048 23.3332 24.5832 23.3332C23.0615 23.3332 21.8332 22.1049 21.8332 20.5832C21.8332 19.0616 23.0615 17.8332 24.5832 17.8332Z" fill="#FF573B"/>
</g>
</g>
</svg>
