<svg width="34" height="34" viewBox="0 0 34 34" fill="none" xmlns="http://www.w3.org/2000/svg">
<mask id="mask0_61_128" style="mask-type:luminance" maskUnits="userSpaceOnUse" x="1" y="1" width="32" height="32">
<path d="M33 1H1V33H33V1Z" fill="white"/>
</mask>
<g mask="url(#mask0_61_128)">
<mask id="mask1_61_128" style="mask-type:luminance" maskUnits="userSpaceOnUse" x="1" y="1" width="32" height="32">
<path d="M33 1H1V33H33V1Z" fill="white"/>
</mask>
<g mask="url(#mask1_61_128)">
<path d="M18.5113 25.3111L23.8002 20.0222C24.0773 19.7452 24.2979 19.4178 24.4621 19.04C24.6263 18.6622 24.7079 18.2593 24.7069 17.8311C24.7069 16.9748 24.4047 16.2444 23.8002 15.64C23.1958 15.0356 22.4654 14.7333 21.6091 14.7333C21.1306 14.7333 20.6586 14.8718 20.1932 15.1489C19.7278 15.4259 19.1672 15.8918 18.5113 16.5467C17.7558 15.8415 17.1639 15.363 16.7358 15.1111C16.3076 14.8593 15.8669 14.7333 15.4136 14.7333C14.5573 14.7333 13.8269 15.0356 13.2225 15.64C12.618 16.2444 12.3158 16.9748 12.3158 17.8311C12.3158 18.2593 12.3979 18.6622 12.5621 19.04C12.7263 19.4178 12.9464 19.7452 13.2225 20.0222L18.5113 25.3111ZM20.4002 31.2044C19.821 31.7837 19.1032 32.0733 18.2469 32.0733C17.3906 32.0733 16.6728 31.7837 16.0936 31.2044L2.79583 17.9067C2.51879 17.6296 2.29817 17.3022 2.13397 16.9244C1.96976 16.5467 1.88816 16.1437 1.88917 15.7156V4.91114C1.88917 4.08003 2.18534 3.3688 2.7777 2.77745C3.37005 2.1861 4.08128 1.88992 4.91139 1.88892H15.7158C16.1439 1.88892 16.5469 1.97102 16.9247 2.13523C17.3025 2.29943 17.6299 2.51955 17.9069 2.79558L31.2047 16.1311C31.7839 16.7104 32.0736 17.4221 32.0736 18.2663C32.0736 19.1105 31.7839 19.8217 31.2047 20.4L20.4002 31.2044ZM18.2469 29.0889L29.0513 18.2844L15.7158 4.91114H4.91139V15.7156L18.2469 29.0889ZM8.68917 10.9556C9.3188 10.9556 9.85423 10.7354 10.2955 10.2952C10.7367 9.85499 10.9568 9.31955 10.9558 8.68892C10.9558 8.05929 10.7357 7.52435 10.2955 7.08412C9.85524 6.64388 9.3198 6.42326 8.68917 6.42225C8.05954 6.42225 7.5246 6.64287 7.08437 7.08412C6.64413 7.52536 6.42351 8.06029 6.4225 8.68892C6.4225 9.31855 6.64312 9.85398 7.08437 10.2952C7.52561 10.7364 8.06054 10.9566 8.68917 10.9556Z" fill="#FF573B"/>
</g>
</g>
</svg>
